<svg width="60" height="60" viewBox="0 0 60 60" fill="none" xmlns="http://www.w3.org/2000/svg">
<path d="M23.4349 16.02C21.2599 16.1038 19.2937 16.88 18.2424 17.9325C18.1263 18.0486 17.9884 18.1406 17.8367 18.2034C17.685 18.2662 17.5224 18.2984 17.3582 18.2984C17.194 18.2983 17.0315 18.2659 16.8798 18.203C16.7281 18.1402 16.5903 18.048 16.4743 17.9319C16.3582 17.8157 16.2662 17.6779 16.2034 17.5262C16.1406 17.3745 16.1083 17.2119 16.1084 17.0477C16.1085 16.8835 16.1409 16.7209 16.2037 16.5693C16.2666 16.4176 16.3588 16.2798 16.4749 16.1638C18.0962 14.5425 20.7362 13.6225 23.3374 13.5213C25.9562 13.42 28.8149 14.1363 30.8174 16.1388C31.0518 16.3733 31.1834 16.6914 31.1833 17.023C31.1832 17.3545 31.0513 17.6725 30.8168 17.9069C30.5822 18.1413 30.2642 18.2729 29.9326 18.2728C29.601 18.2726 29.283 18.1408 29.0487 17.9063C27.6862 16.5425 25.5936 15.935 23.4349 16.0188" fill="url(#paint0_linear_6_119)"/>
<path fill-rule="evenodd" clip-rule="evenodd" d="M36.17 34.23C38.6483 31.301 40.0057 27.5868 40 23.75C40 14.775 32.725 7.5 23.75 7.5C14.775 7.5 7.5 14.775 7.5 23.75C7.5 32.725 14.775 40 23.75 40C27.7437 40 31.4 38.56 34.23 36.17L33.75 38.93L43.1425 48.3225L48.3225 43.1425L38.93 33.75L36.17 34.23ZM23.75 36.25C30.6537 36.25 36.25 30.6537 36.25 23.75C36.25 16.8463 30.6537 11.25 23.75 11.25C16.8463 11.25 11.25 16.8463 11.25 23.75C11.25 30.6537 16.8463 36.25 23.75 36.25Z" fill="url(#paint1_linear_6_119)"/>
<path d="M44.9099 50.09L50.0899 44.91L51.7849 46.605C52.7387 47.5588 52.7387 49.105 51.7849 50.0575L50.0574 51.785C49.1037 52.7388 47.5574 52.7388 46.6049 51.785L44.9099 50.09Z" fill="url(#paint2_linear_6_119)"/>
<defs>
<linearGradient id="paint0_linear_6_119" x1="16.1084" y1="15.9052" x2="31.1833" y2="15.9052" gradientUnits="userSpaceOnUse">
<stop stop-color="#03A7C8"/>
<stop offset="0.5" stop-color="#732FFF"/>
<stop offset="1" stop-color="#AC1F51"/>
</linearGradient>
<linearGradient id="paint1_linear_6_119" x1="7.5" y1="27.9113" x2="48.3225" y2="27.9113" gradientUnits="userSpaceOnUse">
<stop stop-color="#03A7C8"/>
<stop offset="0.5" stop-color="#732FFF"/>
<stop offset="1" stop-color="#AC1F51"/>
</linearGradient>
<linearGradient id="paint2_linear_6_119" x1="44.9099" y1="48.7052" x2="52.5002" y2="48.7052" gradientUnits="userSpaceOnUse">
<stop stop-color="#03A7C8"/>
<stop offset="0.5" stop-color="#732FFF"/>
<stop offset="1" stop-color="#AC1F51"/>
</linearGradient>
</defs>
</svg>
