<svg width="58" height="58" viewBox="0 0 58 58" fill="none" xmlns="http://www.w3.org/2000/svg">
<path d="M39.5439 20.9622C39.2116 23.4263 37.914 25.6574 35.9367 27.1648C33.9593 28.6722 31.4641 29.3323 29 29C26.5359 28.6677 24.3048 27.3701 22.7974 25.3927C21.29 23.4154 20.6298 20.9202 20.9622 18.4561C21.2945 15.992 22.5921 13.7608 24.5694 12.2535C26.5468 10.7461 29.042 10.0859 31.5061 10.4182C33.9702 10.7506 36.2013 12.0481 37.7087 14.0255C39.2161 16.0029 39.8763 18.4981 39.5439 20.9622ZM8.32988 41.9788C7.9122 45.0757 11.0092 45.4934 11.0092 45.4934L27.2868 47.6887C26.962 46.1255 26.9057 44.5184 27.1205 42.9363C27.389 40.9449 28.0813 39.0341 29.1506 37.3327C30.2199 35.6313 31.6414 34.1789 33.3194 33.0732C31.9034 32.6615 30.3244 32.3361 28.5824 32.097C13.0975 30.0086 8.74755 38.8818 8.32988 41.9788ZM40.425 35.1447C41.2385 33.3214 43.9267 33.684 44.2312 35.658L44.3025 36.1343C44.3474 36.4298 44.4579 36.7116 44.6259 36.9588C44.794 37.206 45.0153 37.4124 45.2736 37.5627C45.532 37.7131 45.8207 37.8037 46.1186 37.8278C46.4166 37.8519 46.7161 37.8089 46.9953 37.702L47.4474 37.5296C49.3126 36.8163 50.9577 38.9743 49.7788 40.5843L49.4897 40.9741C49.3133 41.2149 49.1929 41.4922 49.1376 41.7855C49.0823 42.0789 49.0933 42.3809 49.1699 42.6695C49.2465 42.958 49.3867 43.2257 49.5803 43.453C49.7738 43.6803 50.0158 43.8613 50.2885 43.9829L50.7311 44.1845C52.5513 44.9976 52.1887 47.6857 50.2178 47.9907L49.7353 48.0612C49.4402 48.1068 49.1591 48.2179 48.9125 48.3864C48.666 48.5548 48.4603 48.7763 48.3105 49.0346C48.1608 49.293 48.0708 49.5815 48.0471 49.8792C48.0234 50.1769 48.0667 50.476 48.1738 50.7548L48.3461 51.2069C49.0564 53.0717 46.8984 54.7167 45.2884 53.5378L44.8985 53.2488C44.6577 53.0723 44.3805 52.952 44.0871 52.8967C43.7938 52.8413 43.4918 52.8524 43.2032 52.929C42.9147 53.0056 42.647 53.1458 42.4197 53.3394C42.1924 53.5329 42.0114 53.7749 41.8898 54.0475L41.6882 54.4902C40.8751 56.3104 38.187 55.9478 37.882 53.9769L37.8115 53.4944C37.7659 53.1993 37.6548 52.9181 37.4863 52.6716C37.3179 52.4251 37.0964 52.2194 36.8381 52.0696C36.5797 51.9199 36.2912 51.8298 35.9935 51.8062C35.6958 51.7825 35.3967 51.8258 35.1179 51.9328L34.6658 52.1052C32.801 52.8155 31.156 50.6575 32.3349 49.0475L32.6239 48.6576C32.8004 48.4168 32.9207 48.1396 32.976 47.8462C33.0313 47.5529 33.0203 47.2508 32.9437 46.9623C32.8671 46.6738 32.7269 46.4061 32.5333 46.1788C32.3398 45.9515 32.0978 45.7704 31.8252 45.6489L31.3856 45.4477C29.5623 44.6342 29.9249 41.946 31.8989 41.6415L32.3752 41.5702C32.6708 41.5253 32.9525 41.4148 33.1997 41.2468C33.4469 41.0787 33.6533 40.8574 33.8037 40.5991C33.9541 40.3407 34.0447 40.052 34.0688 39.7541C34.0929 39.4561 34.0499 39.1566 33.943 38.8774L33.7706 38.4253C33.0572 36.5601 35.2152 34.915 36.8252 36.0939L37.2151 36.383C37.4559 36.5594 37.7331 36.6797 38.0265 36.7351C38.3198 36.7904 38.6219 36.7794 38.9104 36.7028C39.1989 36.6262 39.4666 36.486 39.6939 36.2924C39.9212 36.0988 40.1023 35.8569 40.2238 35.5842L40.425 35.1447ZM45.7023 45.4424C45.7845 44.8323 45.7458 44.2121 45.5884 43.617C45.431 43.0219 45.1578 42.4636 44.7847 41.9741C44.4115 41.4845 43.9455 41.0733 43.4134 40.7638C42.8812 40.4543 42.2934 40.2527 41.6833 40.1704C41.0733 40.0882 40.453 40.1269 39.8579 40.2843C39.2628 40.4417 38.7045 40.7149 38.215 41.088C37.7255 41.4612 37.3142 41.9272 37.0047 42.4593C36.6953 42.9915 36.4936 43.5793 36.4114 44.1894C36.2452 45.4214 36.5753 46.669 37.329 47.6577C38.0827 48.6464 39.1983 49.2952 40.4303 49.4613C41.6623 49.6275 42.9099 49.2974 43.8986 48.5437C44.8873 47.79 45.5361 46.6744 45.7023 45.4424Z" fill="url(#paint0_linear_6_33)"/>
<defs>
<linearGradient id="paint0_linear_6_33" x1="10.0006" y1="29.5909" x2="53.358" y2="35.4384" gradientUnits="userSpaceOnUse">
<stop stop-color="#03A7C8"/>
<stop offset="0.5" stop-color="#732FFF"/>
<stop offset="1" stop-color="#AC1F51"/>
</linearGradient>
</defs>
</svg>
