<svg width="621" height="193" viewBox="0 0 621 193" fill="none" xmlns="http://www.w3.org/2000/svg">
<path d="M136 51.6122C136 61.7683 126.352 70 114.455 70H21.5447C9.64492 70 0 61.7683 0 51.6122C0 42.7793 7.29459 35.4017 17.0251 33.6318C18.3649 24.577 27.4206 17.5759 38.3954 17.5759C41.4666 17.5759 44.3864 18.1237 47.0297 19.1126C52.0464 7.93667 64.7362 0 79.592 0C98.8457 0 114.455 13.3224 114.455 29.7548C114.455 30.9291 114.376 32.0866 114.218 33.2272C114.297 33.2244 114.376 33.2244 114.455 33.2244C126.352 33.2244 136 41.4561 136 51.6122Z" fill="white" fill-opacity="0.3"/>
<path d="M136 140.552C136 148.532 129.686 155 121.901 155H61.0991C53.3118 155 47 148.532 47 140.552C47 133.612 51.7737 127.816 58.1414 126.425C59.0182 119.31 64.9443 113.81 72.1264 113.81C74.1362 113.81 76.047 114.24 77.7768 115.017C81.0598 106.236 89.3641 100 99.086 100C111.686 100 121.901 110.468 121.901 123.379C121.901 124.301 121.849 125.211 121.746 126.107C121.797 126.105 121.849 126.105 121.901 126.105C129.686 126.105 136 132.573 136 140.552Z" fill="white" fill-opacity="0.3"/>
<path d="M252 41.2807C252 46.649 247.176 51 241.228 51H194.772C188.822 51 184 46.649 184 41.2807C184 36.6119 187.647 32.7124 192.513 31.7768C193.182 26.9907 197.71 23.2901 203.198 23.2901C204.733 23.2901 206.193 23.5797 207.515 24.1024C210.023 18.1951 216.368 14 223.796 14C233.423 14 241.228 21.0418 241.228 29.7275C241.228 30.3483 241.188 30.9601 241.109 31.563C241.149 31.5615 241.188 31.5615 241.228 31.5615C247.176 31.5615 252 35.9125 252 41.2807Z" fill="white" fill-opacity="0.3"/>
<path d="M621 50.7046C621 56.9434 616.034 62 609.911 62H562.089C555.964 62 551 56.9434 551 50.7046C551 45.2787 554.755 40.7468 559.763 39.6595C560.452 34.0973 565.114 29.7966 570.762 29.7966C572.343 29.7966 573.846 30.1331 575.206 30.7406C577.789 23.8754 584.32 19 591.966 19C601.876 19 609.911 27.1837 609.911 37.2779C609.911 37.9993 609.87 38.7103 609.789 39.411C609.829 39.4093 609.87 39.4093 609.911 39.4093C616.034 39.4093 621 44.4659 621 50.7046Z" fill="white" fill-opacity="0.3"/>
<path d="M621 173.299C621 184.18 610.997 193 598.663 193H502.337C490 193 480 184.18 480 173.299C480 163.835 487.563 155.93 497.651 154.034C499.04 144.332 508.429 136.831 519.807 136.831C522.991 136.831 526.018 137.418 528.759 138.478C533.96 126.504 547.116 118 562.518 118C582.48 118 598.663 132.274 598.663 149.88C598.663 151.138 598.581 152.379 598.417 153.601C598.499 153.598 598.581 153.598 598.663 153.598C610.997 153.598 621 162.417 621 173.299Z" fill="white" fill-opacity="0.3"/>
<path d="M426 36.8659C426 44.1202 419.26 50 410.95 50H346.05C337.737 50 331 44.1202 331 36.8659C331 30.5567 336.095 25.287 342.893 24.0227C343.828 17.555 350.154 12.5542 357.82 12.5542C359.966 12.5542 362.005 12.9455 363.852 13.6519C367.356 5.66905 376.22 0 386.597 0C400.047 0 410.95 9.51598 410.95 21.2534C410.95 22.0922 410.895 22.919 410.785 23.7337C410.84 23.7317 410.895 23.7317 410.95 23.7317C419.26 23.7317 426 29.6115 426 36.8659Z" fill="white" fill-opacity="0.3"/>
</svg>
