<svg width="503" height="229" viewBox="0 0 503 229" fill="none" xmlns="http://www.w3.org/2000/svg">
<path d="M186.143 79.5978C186.673 82.6494 184.609 85.5493 181.56 86.08C178.51 86.6107 175.612 84.5447 175.082 81.4932C174.552 78.4416 176.616 75.5417 179.666 75.011C182.715 74.4803 185.613 76.5462 186.143 79.5978Z" fill="#AC1F51"/>
<path d="M335.106 53.9912C335.636 57.0428 333.572 59.9427 330.522 60.4734C327.473 61.0041 324.575 58.9382 324.045 55.8866C323.515 52.8351 325.579 49.9351 328.628 49.4044C331.678 48.8737 334.576 50.9397 335.106 53.9912Z" fill="#AC1F51"/>
<path d="M280.577 216.16C278.191 216.577 275.937 215.212 275.501 213.089L257.13 122.187C256.675 119.988 258.361 117.809 260.861 117.392L266.259 116.463C268.74 116.027 271.051 117.524 271.373 119.742L284.365 211.573C284.668 213.715 283.002 215.762 280.615 216.16H280.577Z" fill="#25233C"/>
<path d="M302.301 179.029C304.896 194.117 294.763 208.446 279.687 211.042C264.611 213.639 250.292 203.499 247.697 188.412C245.103 173.324 255.235 158.995 270.312 156.399C285.388 153.802 299.706 163.942 302.301 179.029Z" fill="#25233C"/>
<path d="M293.014 196.233C299.936 186.273 297.48 172.583 287.527 165.656C277.574 158.728 263.894 161.186 256.972 171.146C250.049 181.106 252.506 194.796 262.458 201.724C272.411 208.651 286.091 206.193 293.014 196.233Z" fill="#DE3A74"/>
<path d="M291.582 180.868C293.154 190.042 286.998 198.741 277.85 200.314C268.683 201.888 259.99 195.728 258.418 186.573C256.846 177.399 263.001 168.7 272.149 167.126C281.316 165.553 290.01 171.713 291.582 180.868Z" fill="#25233C"/>
<path d="M287.282 181.607C288.438 188.393 283.892 194.837 277.112 196.012C270.331 197.187 263.892 192.619 262.717 185.834C261.543 179.048 266.108 172.604 272.888 171.429C279.669 170.254 286.108 174.822 287.282 181.607Z" fill="#E7E0D8"/>
<path d="M283.665 182.233C284.479 187.009 281.278 191.558 276.505 192.373C271.733 193.188 267.187 189.985 266.373 185.208C265.558 180.432 268.759 175.883 273.532 175.068C278.305 174.253 282.85 177.456 283.665 182.233Z" fill="#25233C"/>
<path d="M273.286 178.158C273.835 181.342 271.695 184.374 268.494 184.924C265.312 185.474 262.282 183.332 261.732 180.129C261.183 176.944 263.323 173.912 266.524 173.362C269.725 172.813 272.737 174.954 273.286 178.158Z" fill="white"/>
<path opacity="0.51" d="M355.429 90.9321C355.808 93.1308 363.554 93.6425 372.74 92.0504C381.926 90.4583 413.101 83.2748 412.722 81.0762C412.343 78.8775 380.543 82.4977 371.357 84.0898C362.171 85.6819 355.031 88.7335 355.41 90.9321H355.429Z" fill="white"/>
<path opacity="0.51" d="M470.034 71.2392C469.655 69.0405 461.909 68.5288 452.723 70.1209C443.537 71.6941 412.362 78.8965 412.741 81.0951C413.12 83.2938 444.92 79.6736 454.106 78.0815C463.291 76.4894 470.432 73.4378 470.053 71.2392H470.034Z" fill="white"/>
<path d="M415.166 100.125L416.795 99.8404C418.67 99.5182 420.658 102.02 420.336 100.144L416.416 77.2475C416.094 75.3711 414.314 74.1201 412.439 74.4423L410.81 74.7267C408.935 75.0489 407.685 76.8305 408.007 78.707L411.927 101.603C412.249 103.48 413.291 100.447 415.166 100.125Z" fill="white"/>
<path d="M420.452 114.815L416.682 115.464C411.586 116.34 406.73 112.905 405.854 107.806L403.795 95.8132C403.596 94.655 404.372 93.5792 405.511 93.3834L423.636 90.2667C424.793 90.0677 425.868 90.8444 426.064 91.9839L428.123 103.976C428.999 109.076 425.57 113.954 420.455 114.834L420.452 114.815Z" fill="#25233C"/>
<path d="M304.12 78.271L425.752 97.7745C428.631 98.2673 430.885 100.523 431.378 103.404C432.116 107.706 428.726 111.611 424.37 111.459L304.518 105.204L304.12 78.271Z" fill="#AC1F51"/>
<path opacity="0.51" d="M168.245 123.116C168.624 125.314 161.484 128.385 152.298 129.958C143.112 131.531 111.312 135.17 110.933 132.972C110.554 130.773 141.729 123.571 150.915 121.997C160.101 120.424 167.848 120.917 168.226 123.116H168.245Z" fill="white"/>
<path opacity="0.51" d="M53.6394 142.809C53.2606 140.61 60.401 137.54 69.5868 135.966C78.7727 134.393 110.573 130.754 110.952 132.953C111.33 135.151 80.1553 142.354 70.9694 143.927C61.7836 145.5 54.0371 145.007 53.6583 142.809H53.6394Z" fill="white"/>
<path d="M115.005 151.717L113.376 152.001C111.501 152.323 110.459 155.356 110.137 153.48L106.217 130.583C105.895 128.707 107.145 126.925 109.02 126.603L110.648 126.319C112.524 125.997 114.304 127.248 114.626 129.124L118.546 152.02C118.868 153.897 116.88 151.395 115.005 151.717Z" fill="white"/>
<path d="M103.718 145.194L121.843 142.077C123.001 141.878 124.076 142.655 124.271 143.794L126.331 155.787C127.206 160.887 123.774 165.746 118.678 166.623L114.908 167.271C109.812 168.147 104.956 164.713 104.08 159.613L102.021 147.621C101.822 146.462 102.598 145.387 103.737 145.191L103.718 145.194Z" fill="#25233C"/>
<path d="M212.394 94.0406L104.228 153.044C101.671 154.465 100.307 157.346 100.8 160.227C101.538 164.53 106.046 167.07 110.099 165.477L220.993 119.571L212.375 94.0595L212.394 94.0406Z" fill="#AC1F51"/>
<path d="M307.927 94.9883L361.906 123.855C368.118 127.172 373.384 132.005 377.228 137.9L405.07 180.489C406.756 183.086 404.407 186.402 401.396 185.663C400.581 185.455 399.881 184.981 399.407 184.28L371.49 143.624C366.963 137.047 360.656 131.891 353.326 128.764L308.969 109.924L307.908 94.9883H307.927Z" fill="#25233C"/>
<path d="M214.383 111.08L173.113 156.323C168.378 161.516 165.006 167.828 163.34 174.67L151.294 224.101C150.555 227.115 153.889 229.465 156.483 227.76C157.184 227.305 157.677 226.603 157.904 225.788L170.65 178.139C172.715 170.424 176.939 163.449 182.829 158.066L218.36 125.504L214.383 111.08Z" fill="#25233C"/>
<g opacity="0.51">
<path d="M343.193 30.299C343.723 33.3695 354.519 34.0708 367.303 31.8721C380.088 29.6735 423.498 19.6469 422.987 16.5954C422.456 13.5249 378.194 18.5855 365.409 20.7842C352.625 22.9828 342.681 27.2474 343.212 30.3179L343.193 30.299Z" fill="white"/>
<path d="M502.761 2.8539C502.231 -0.216614 491.435 -0.917904 478.651 1.28074C465.866 3.47938 422.456 13.5059 422.967 16.5575C423.498 19.628 467.76 14.5673 480.545 12.3687C493.329 10.1701 503.273 5.90546 502.742 2.83495L502.761 2.8539Z" fill="white"/>
</g>
<path d="M426.358 43.0928L428.631 42.6948C431.245 42.2399 434.01 45.7274 433.555 43.1307L428.082 11.2694C427.627 8.65377 425.165 6.91002 422.551 7.36491L420.278 7.76294C417.665 8.21783 415.922 10.6818 416.377 13.2975L421.85 45.1588C422.305 47.7744 423.744 43.5477 426.358 43.1118V43.0928Z" fill="white"/>
<path d="M435.201 63.2797L427.007 64.6888C420.716 65.7705 414.723 61.5317 413.642 55.2365L410.466 36.7433C410.223 35.3236 411.184 33.9851 412.584 33.7444L438.475 29.2923C439.893 29.0484 441.231 30.0108 441.471 31.4118L444.647 49.905C445.728 56.2002 441.492 62.198 435.201 63.2797Z" fill="#25233C"/>
<g opacity="0.51">
<path d="M0.00133472 89.2832C0.531653 92.3537 11.3274 93.055 24.1119 90.8564C36.8963 88.6577 80.3067 78.6312 79.7953 75.5796C79.2839 72.528 35.0023 77.5697 22.2179 79.7684C9.43341 81.967 -0.510054 86.2316 0.0202643 89.3021L0.00133472 89.2832Z" fill="white"/>
<path d="M159.551 61.857C159.021 58.7865 148.225 58.0852 135.441 60.2839C122.656 62.4825 79.246 72.5091 79.7574 75.5606C80.2688 78.6122 124.55 73.5705 137.335 71.3718C150.119 69.1732 160.063 64.9086 159.532 61.8381L159.551 61.857Z" fill="white"/>
</g>
<path d="M83.1471 102.077L85.42 101.679C88.0337 101.224 90.7989 104.712 90.3443 102.115L84.8707 70.2536C84.4161 67.638 81.9539 65.8942 79.3402 66.3491L77.0674 66.7471C74.4537 67.202 72.7113 69.666 73.1658 72.2816L78.6395 104.143C79.094 106.759 80.5334 102.532 83.1471 102.096V102.077Z" fill="white"/>
<path d="M92.0109 122.248L83.8163 123.657C77.5258 124.739 71.5323 120.5 70.4514 114.205L67.276 95.7119C67.0323 94.2923 67.9939 92.9538 69.3939 92.713L95.2842 88.261C96.7028 88.0171 98.0403 88.9794 98.2809 90.3804L101.456 108.874C102.537 115.169 98.3014 121.167 92.0109 122.248Z" fill="#25233C"/>
<path d="M442.779 35.5871L286.146 62.5205L255.104 67.8654L224.061 73.2104L67.4278 100.144C62.636 100.959 59.4352 105.508 60.2496 110.303C61.0451 114.928 65.3066 118.112 69.9658 117.543L152.336 106.19C175.84 103.366 199.326 111.535 215.993 128.366L232.849 145.367C238.607 151.186 246.846 153.821 254.914 152.437L269.214 149.973L283.514 147.509C291.582 146.126 298.457 140.894 301.961 133.483L312.17 111.819C322.265 90.4015 341.678 74.8404 364.785 69.666L446.208 52.873C450.772 51.8495 453.746 47.4143 452.95 42.7896C452.136 37.9942 447.59 34.7911 442.798 35.6061L442.779 35.5871Z" fill="#DE3A74"/>
<path d="M222.357 90.505L221.779 90.6045C221.016 90.7357 220.504 91.4609 220.635 92.2243L225.247 119.086C225.378 119.85 226.103 120.362 226.866 120.231L227.444 120.132C228.207 120 228.719 119.275 228.588 118.512L223.976 91.6498C223.845 90.8864 223.12 90.3738 222.357 90.505Z" fill="#AC1F51"/>
<path d="M229.546 89.2873L228.967 89.3868C228.204 89.518 227.692 90.2432 227.823 91.0067L232.436 117.869C232.567 118.632 233.291 119.145 234.054 119.013L234.633 118.914C235.396 118.783 235.908 118.057 235.777 117.294L231.165 90.4321C231.033 89.6687 230.309 89.1561 229.546 89.2873Z" fill="#AC1F51"/>
<path d="M236.696 88.0349L236.118 88.1344C235.355 88.2656 234.843 88.9909 234.974 89.7543L239.586 116.616C239.717 117.38 240.442 117.892 241.205 117.761L241.783 117.661C242.546 117.53 243.058 116.805 242.927 116.042L238.315 89.1797C238.184 88.4163 237.459 87.9038 236.696 88.0349Z" fill="#AC1F51"/>
<path d="M243.884 86.7983L243.305 86.8978C242.542 87.029 242.03 87.7542 242.161 88.5177L246.774 115.38C246.905 116.143 247.629 116.656 248.392 116.524L248.971 116.425C249.734 116.294 250.246 115.568 250.115 114.805L245.502 87.9431C245.371 87.1797 244.647 86.6671 243.884 86.7983Z" fill="#AC1F51"/>
<path d="M251.072 85.5241L250.494 85.6235C249.731 85.7546 249.218 86.4797 249.349 87.2432L253.957 114.106C254.088 114.869 254.813 115.382 255.576 115.251L256.154 115.152C256.917 115.02 257.429 114.295 257.298 113.532L252.691 86.6692C252.56 85.9057 251.835 85.3931 251.072 85.5241Z" fill="#AC1F51"/>
<path d="M258.241 84.344L257.663 84.4435C256.9 84.5747 256.388 85.2999 256.519 86.0634L261.131 112.925C261.262 113.689 261.987 114.201 262.75 114.07L263.328 113.971C264.091 113.839 264.603 113.114 264.472 112.351L259.86 85.4888C259.729 84.7254 259.004 84.2128 258.241 84.344Z" fill="#AC1F51"/>
<path d="M265.41 83.1074L264.832 83.2069C264.069 83.338 263.556 84.0633 263.688 84.8267L268.3 111.689C268.431 112.452 269.156 112.965 269.919 112.833L270.497 112.734C271.26 112.603 271.772 111.877 271.641 111.114L267.029 84.2522C266.898 83.4887 266.173 82.9762 265.41 83.1074Z" fill="#AC1F51"/>
<path d="M272.579 81.8739L272 81.9734C271.238 82.1046 270.725 82.8299 270.856 83.5933L275.469 110.455C275.6 111.219 276.325 111.731 277.088 111.6L277.666 111.5C278.429 111.369 278.941 110.644 278.81 109.881L274.198 83.0187C274.067 82.2553 273.342 81.7427 272.579 81.8739Z" fill="#AC1F51"/>
<path d="M279.749 80.6752L279.17 80.7747C278.407 80.9059 277.895 81.6311 278.026 82.3946L282.639 109.256C282.77 110.02 283.495 110.532 284.257 110.401L284.836 110.302C285.599 110.171 286.111 109.445 285.98 108.682L281.368 81.82C281.237 81.0566 280.512 80.544 279.749 80.6752Z" fill="#AC1F51"/>
<path d="M286.934 79.382L286.355 79.4815C285.592 79.6127 285.08 80.3379 285.211 81.1013L289.823 107.963C289.954 108.727 290.679 109.239 291.442 109.108L292.021 109.009C292.784 108.877 293.296 108.152 293.165 107.389L288.552 80.5268C288.421 79.7634 287.696 79.2508 286.934 79.382Z" fill="#AC1F51"/>
<path d="M294.108 78.1794L293.529 78.2787C292.766 78.4096 292.254 79.1347 292.384 79.8981L296.987 106.762C297.118 107.525 297.843 108.038 298.606 107.907L299.184 107.808C299.947 107.677 300.46 106.952 300.329 106.188L295.726 79.3248C295.595 78.5613 294.871 78.0485 294.108 78.1794Z" fill="#AC1F51"/>
<path d="M298.589 157.365C299.29 161.478 296.544 165.383 292.415 166.103C288.305 166.804 284.403 164.056 283.683 159.924C282.983 155.811 285.729 151.907 289.858 151.186C293.968 150.485 297.869 153.233 298.589 157.365Z" fill="#25233C"/>
<path d="M294.745 158.029C295.086 160.019 293.741 161.933 291.752 162.274C289.764 162.615 287.851 161.27 287.51 159.28C287.169 157.289 288.514 155.375 290.502 155.034C292.491 154.693 294.404 156.038 294.745 158.029Z" fill="white"/>
</svg>
