<svg xmlns="http://www.w3.org/2000/svg" id="_Слой_1" data-name="Слой_1" version="1.1" viewBox="0 0 1000 1000">
  <!-- Generator: Adobe Illustrator 29.0.1, SVG Export Plug-In . SVG Version: 2.1.0 Build 192)  -->
  <defs>
    <style>
      .st0 {
        fill: #5b82a3;
      }

      .st1 {
        fill: #fff;
      }

      .st2 {
        fill: #6ca25a;
      }

      .st3 {
        fill: #ffcb00;
      }
    </style>
  </defs>
  <path class="st1" d="M932.3,623.7c0,75.6-61.3,137-137,137H204.7c-75.6,0-137-61.3-137-137s46.4-120.7,108.2-133.9c8.5-67.4,66.1-119.6,135.9-119.6s38.1,4.1,54.9,11.4c31.9-83.2,112.6-142.4,207-142.4s221.6,99.2,221.6,221.6-.5,17.4-1.5,25.9c.5,0,1,0,1.5,0,75.6,0,137,61.3,137,137Z"/>
  <path class="st0" d="M354.4,509.8c-1-1.2-2.2-2.3-3.5-3.4-6.3-4.8-16.8-8.2-31.7-10-6.4-.8-10.7-1.6-13-2.6-2.3-1-3.5-2.2-3.5-3.6,0-2.7,2.4-4,7.2-4s5.7.8,7.6,2.4c1.9,1.6,4,2.4,6.3,2.4h29.8c.3,0,.6,0,.9-.2.5-.1.9-.4,1.2-.8.6-.6,1-1.4,1-2.3,0-3-.7-5.9-2.2-8.7-2.1-4.1-5.7-8.1-10.8-12-8.7-6.6-19.9-9.9-33.5-9.9s-24.7,3.1-33.1,9.2c-8.4,6.1-12.6,14.1-12.6,23.9,0,17.8,12.8,28.4,38.4,31.6,7.5,1,12.5,1.9,15.2,2.8,2.7.9,4,2.2,4,4,0,2.7-3.7,4-11.2,4s-8-1-10.5-2.8c-2.5-1.9-4.8-2.8-6.9-2.8h-28.3c-.9,0-1.7.3-2.3,1s-1,1.4-1,2.3c0,7.8,3.4,14.5,10.1,20.1.9.7,1.8,1.4,2.8,2.2,8.5,6.1,20.3,9.2,35.3,9.2s22.7-2.1,31.1-6.2c1.9-.9,3.7-1.9,5.3-3.1,3.2-2.2,5.9-4.5,8-7.2,4-4.8,5.9-10.5,5.9-16.9s-2-14-5.9-18.7Z"/>
  <path class="st0" d="M480.7,556.9l-3.7-6.3-25.7-43.3,16.5-27.8,10.4-17.4c.3-.5.5-1.1.5-1.9s-.3-1.4-1-2.1c-.6-.6-1.4-1-2.3-1h-33c-2.9,0-4.9,1.1-6,3.3l-16.9,30.4v-29.6c0-1.1-.4-2-1.2-2.8-.8-.8-1.7-1.2-2.8-1.2h-28.5c-1.1,0-2,.4-2.8,1.2-.8.8-1.2,1.7-1.2,2.8v96.6c0,1.1.4,2.1,1.2,2.8.8.8,1.7,1.2,2.8,1.2h28.5c1.1,0,2.1-.4,2.8-1.2.8-.8,1.2-1.7,1.2-2.8v-32l13.9,24.8,4.3,7.8c1.2,2.3,3.2,3.4,6.1,3.4h34.1c.9,0,1.7-.3,2.3-1,.7-.6,1-1.3,1-2.1s-.1-1.4-.4-1.9Z"/>
  <path class="st0" d="M615.7,458.1c-.6-.6-1.4-1-2.3-1h-28.1c-3,0-5.1,1.2-6.3,3.7l-14.9,30-14.9-30c-1.2-2.5-3.3-3.7-6.3-3.7h-28.1c-.9,0-1.7.3-2.3,1-.6.7-1,1.3-1,2s.1,1.2.3,1.6l9.4,18.5,24.3,48v29.4c0,1.1.4,2.1,1.2,2.8.8.8,1.7,1.2,2.8,1.2h29.3c1.1,0,2-.4,2.8-1.2.8-.8,1.2-1.7,1.2-2.8v-29.4l33.6-66.5c.2-.4.3-1,.3-1.6s-.3-1.4-1-2Z"/>
  <path class="st2" d="M357.9,617.6c-1.1-9.3-5-16.6-11.8-21.8-1.1-.8-2.2-1.6-3.4-2.3-7.7-4.6-17.8-6.9-30.2-6.9h-44.5c-.2,0-.4,0-.6,0-.9.1-1.6.5-2.2,1.1-.8.8-1.2,1.7-1.2,2.8v96.6c0,1.1.4,2.1,1.2,2.8.8.8,1.7,1.2,2.8,1.2h30.8c1.1,0,2-.4,2.8-1.2.8-.8,1.2-1.7,1.2-2.8v-28.5h9.7c14.4,0,25.7-2.9,33.7-8.7.2-.1.4-.3.6-.5,7.6-5.8,11.5-14.5,11.5-26.3s-.1-3.8-.3-5.6ZM317.2,628.9c-1.4,1.3-3,2-4.8,2h-10.5v-16.6h10.5c2.4,0,4.2.9,5.2,2.5,1.1,1.7,1.7,3.8,1.7,6.3s-.7,4.4-2.1,5.8Z"/>
  <path class="st2" d="M488.3,686.8l-11.1-31.7h0s-20.1-57.4-20.1-57.4l-2.2-6.2c-.9-3.3-3.1-4.9-6.7-4.9h-32.4c-3.6,0-5.8,1.6-6.7,4.9l-2.2,6.3-7.9,22.6-14.3,41-8.9,25.4c-.1.3-.1.8-.1,1.4s.3,1.3,1,2c.6.6,1.4,1,2.3,1h27.7c3,0,4.9-1.2,5.8-3.7l3.6-9.9h32.1l3.6,9.9c.9,2.5,2.8,3.7,5.8,3.7h27.7c.9,0,1.7-.3,2.3-1,.6-.6,1-1.3,1-2s0-1.1-.1-1.4ZM423.5,648.4l8.4-27.8,8.5,27.8h-16.9Z"/>
  <path class="st2" d="M624.2,588.6c0,0,0-.1,0-.1,0-.1,0-.2-.1-.3,0-.1-.1-.2-.2-.3s-.2-.2-.3-.3c0,0,0,0,0,0-.6-.6-1.4-1-2.3-1h-27.8c-3.3,0-5.1,1.3-5.4,4l-.7,5.6-4.4,36.4-6.1-18.5c-1-2.9-2.7-4.3-5.1-4.3h-15.3c-2.4,0-4.1,1.4-5.1,4.3l-6.1,18.7-4.4-36.5-.7-5.6c-.3-2.7-2.1-4-5.4-4h-27.8c-.9,0-1.7.3-2.3,1-.6.7-1,1.4-1,2.3v.5l1.1,7.5,7.6,52.4h0c0,0,5.1,35.4,5.1,35.4.2,1.5.9,2.8,2.2,4,.2.2.5.4.7.6,0,0,0,0,0,0,.2.2.5.3.7.4,0,0,0,0,0,0,.2,0,.4.2.5.2.2,0,.4.1.6.2.1,0,.3,0,.4.1.2,0,.4,0,.6,0,.2,0,.4,0,.6,0,.1,0,.3,0,.4,0h21.4c3.1,0,5.1-1.3,6.1-4l12.2-30.6,12.3,30.6c1,2.7,3,4,6.1,4h21.4c1.9,0,3.4-.6,4.7-1.7,1.2-1.1,2-2.5,2.2-4l1.4-9.9,4.8-33.3v-.5c0,0,7.5-51.5,7.5-51.5v-.5c0-.4,0-.8-.2-1.2Z"/>
  <path class="st2" d="M728.7,635.8c-6.3-4.8-16.8-8.2-31.7-10-6.4-.8-10.7-1.6-13-2.6-2.3-1-3.5-2.2-3.5-3.6,0-2.7,2.4-4,7.2-4s5.7.8,7.6,2.4c1.9,1.6,4,2.4,6.3,2.4h29.8c.8,0,1.5-.3,2.2-1,.6-.6,1-1.4,1-2.3,0-7.2-4.4-14.1-13-20.7-8.7-6.6-19.9-9.9-33.5-9.9s-24.7,3.1-33.1,9.2c-.2.2-.5.4-.7.5h0c-.5.4-1,.8-1.4,1.2-.9.7-1.7,1.5-2.5,2.3-.5.5-1,1.1-1.4,1.6-.3.3-.6.7-.8,1,0,.1-.1.2-.2.3-.3.4-.5.7-.8,1.1-1,1.4-1.8,3-2.5,4.6-.2.4-.4.9-.5,1.3-.2.5-.4,1-.5,1.5-.8,2.6-1.2,5.5-1.2,8.5s0,1.1,0,1.7c0,.5,0,1,.1,1.4.2,2,.5,3.9,1.1,5.7,0,.3.2.6.3.8.5,1.5,1.1,3,1.9,4.3.2.3.4.6.6,1,.6,1,1.3,1.9,2,2.8.4.5.8.9,1.2,1.3.4.4.8.8,1.3,1.3t0,0c.5.4.9.8,1.4,1.2t0,0c.4.3.9.7,1.3,1,1.7,1.2,3.6,2.3,5.6,3.3.6.3,1.2.6,1.8.8.7.3,1.4.6,2.1.8.7.3,1.4.5,2.2.8,1.5.5,3.1,1,4.7,1.4,1.6.4,3.4.8,5.2,1.1.9.2,1.8.3,2.8.5.9.2,1.9.3,2.9.4,7.5,1,12.5,1.9,15.2,2.8,2.7.9,4,2.2,4,4,0,2.7-3.7,4-11.2,4s-8-1-10.5-2.8c-2.5-1.9-4.8-2.8-6.9-2.8h-28.3c-.9,0-1.7.3-2.3,1s-1,1.4-1,2.3,0,1.7.1,2.6c0,.2,0,.4,0,.7,0,.4,0,.7.2,1,.2,1.2.5,2.4.9,3.6,0,.2.2.5.3.8.1.3.2.7.4,1,.3.6.6,1.3.9,1.9.1.3.3.7.5,1,0,0,0,0,0,0,0,0,0,.1.1.2.2.4.5.8.7,1.2,0,0,0,0,0,0,.3.4.6.8.9,1.3.3.4.7.8,1,1.3.4.4.7.8,1.1,1.2.7.8,1.6,1.6,2.4,2.3.9.8,1.9,1.6,3,2.3,8.5,6.1,20.3,9.2,35.3,9.2s27.1-3.1,36.4-9.3c9.3-6.2,14-14.2,14-24s-3.2-17.2-9.5-22Z"/>
  <g>
    <path class="st3" d="M716.4,461.3c5.4,6.8,0,19.9-5.5,25.9-7,7.7-22.6,14.2-27.6,2.2-5.5-13.4,10.1-32.1,24.1-32.1,2.2,0,5.2.7,6.9,2,.5.4,1.6,1.5,2,2Z"/>
    <path class="st3" d="M740.7,485.6c5.7,7.1-.7,19.5-6.9,25.1s-18.8,10.6-25.6,4.8c-8.3-7.2-1.8-20,5.4-26.4,6.1-5.4,18.8-10.5,25.6-5,.4.3,1.2,1.1,1.5,1.5Z"/>
    <path class="st3" d="M656.5,469.7c.8-.9,2.3-2.4,3.2-3.2,4.8-4.1,12.1-5.3,16.4-.6,8.1,9,.5,29-11.2,32.7-8.6,2.7-13.9-4.3-14.3-12.2-.2-5.5,2.2-12.4,5.9-16.8Z"/>
    <path class="st3" d="M694.4,502.4c7.8,6.6,9.3,17.2,4.6,26.7-1.3,2.6-3,4.9-3.7,7.8-.7,3.1.5,5.6.2,8.7-.8,8.7-7.4,16-15.9,17.8-8.6,1.8-14.4-3.2-16.5-11-1.5-5.6-1.4-8.9-6.2-13-6.7-5.7-15.3-1.5-20.2-10.9-5.5-10.4,3.7-22.3,14.5-25,5-1.2,7.1,0,11.7,0,3.7,0,5.4-1.6,8.6-3.1,7.4-3.4,16.9-3.1,22.9,2Z"/>
    <path class="st3" d="M733.6,523.6c7.8,6.3,2.1,16.5-5,21.5-8,5.6-24.5,8-27.4-3.4-3.6-14,21.6-26.8,32.5-18.1Z"/>
  </g>
</svg>