<svg width="229" height="248" viewBox="0 0 229 248" fill="none" xmlns="http://www.w3.org/2000/svg">
<path opacity="0.51" d="M51.2005 59.7044C39.4767 38.6089 41.5601 40.3716 18.7754 32.4489C39.8555 20.7165 38.0941 22.8014 46.011 0C57.7348 21.0956 55.6514 19.3329 78.4362 27.2555C57.356 38.9879 59.1174 36.903 51.2005 59.7044Z" fill="white"/>
<path opacity="0.51" d="M43.7758 49.0334C37.9044 38.4572 38.9462 39.3481 27.5254 35.3678C38.0939 29.4921 37.2037 30.5345 41.1811 19.1054C47.0524 29.6816 46.0107 28.7908 57.4315 32.7711C46.863 38.6468 47.7532 37.6043 43.7758 49.0334Z" fill="white"/>
<path opacity="0.51" d="M56.8448 26.1941C54.4773 21.9295 54.894 22.2896 50.3105 20.6975C54.572 18.3283 54.2122 18.7453 55.8031 14.1584C58.1706 18.423 57.754 18.0629 62.3374 19.655C58.0759 22.0243 58.4357 21.6073 56.8448 26.1941Z" fill="white"/>
<path d="M133.93 130.269C133.93 130.269 124.706 137.775 128.078 144.655C131.449 151.517 143.211 148.351 143.211 148.351C143.211 148.351 133.646 157.013 139.839 164.045C142.453 167.021 148.779 165.903 155.238 163.628L153.969 159.818L163.42 181.236L189.273 247.991H224.349C219.274 236.164 215.467 226.915 214.652 224.015C211.679 213.533 219.936 176.403 225.372 165.827C230.789 155.232 228.725 145.982 223.327 139.083C214.671 127.919 194.443 94.2762 181.791 92.2671C169.121 90.258 130.18 88.3815 130.18 88.3815C126.26 88.8933 122.509 90.9972 119.934 96.0578C115.54 104.777 118.93 109.61 122.131 112.017C119.498 113.609 117.415 115.902 116.865 119.219C114.971 130.459 133.949 130.25 133.949 130.25L133.93 130.269ZM165.143 143.632L152.491 155.421L146.449 137.301L165.143 143.632Z" fill="#FED9BC"/>
<path d="M150.188 93.8141L9.91944 120.337C4.44107 121.373 0.839151 126.657 1.8743 132.14L13.5984 194.233C14.6335 199.715 19.9137 203.32 25.3921 202.284L165.66 175.761C171.139 174.725 174.741 169.441 173.706 163.958L161.981 101.865C160.946 96.3827 155.666 92.7782 150.188 93.8141Z" fill="#25233C"/>
<path d="M141.917 101.174L11.6426 125.808L25.0053 196.58L155.28 171.946L141.917 101.174Z" fill="#9EE9F8"/>
<path d="M14.892 172.802C14.0587 172.953 13.2443 172.404 13.0928 171.57L9.09641 150.379C8.94489 149.545 9.49414 148.73 10.3275 148.579C11.1609 148.427 11.9753 148.977 12.1268 149.811L16.1231 171.001C16.2746 171.835 15.7254 172.65 14.892 172.802Z" fill="#3F3D53"/>
<path d="M160.597 147.006C158.362 147.423 156.184 145.944 155.748 143.708L152.623 127.18C152.206 124.943 153.684 122.764 155.919 122.328C158.154 121.911 160.332 123.389 160.767 125.626L163.892 142.153C164.309 144.39 162.832 146.57 160.597 147.006Z" fill="#3F3D53"/>
<path d="M153.191 160.69L148.4 135.33C148.267 134.629 147.282 134.648 147.169 135.33L145.653 144.883C145.559 145.508 144.706 145.603 144.46 145.034L140.767 136.391C140.54 135.861 139.782 135.899 139.593 136.429L134.706 150.569C134.517 151.1 133.797 151.138 133.551 150.645L130.842 145.015C130.615 144.523 129.914 144.542 129.706 145.034L126.543 152.426C126.335 152.9 125.691 152.938 125.426 152.502L123.266 148.977C122.982 148.522 122.319 148.598 122.13 149.109L117.698 161.941C117.622 162.15 117.433 162.32 117.225 162.358L54.7038 173.712C54.4197 173.768 54.1356 173.617 54.022 173.351L50.3855 164.993L49.4006 169.978L43.624 160.197C43.283 159.629 42.4308 159.894 42.4497 160.558L42.7716 166.566C42.8095 167.172 42.033 167.476 41.6542 167.002L33.2638 156.691C32.885 156.236 32.1464 156.501 32.1464 157.089L32.0706 169.238C32.0706 169.864 31.2561 170.091 30.9152 169.58L24.7787 160.027C24.4567 159.534 23.7181 159.705 23.6234 160.273L22.7332 166.509C22.6575 167.078 21.9188 167.248 21.5968 166.774L18.5664 162.491L23.3203 187.699C23.3772 188.041 23.7181 188.268 24.059 188.192L152.661 161.429C153.002 161.354 153.21 161.031 153.154 160.69H153.191Z" fill="#00B4B8"/>
<path d="M152.605 157.62C152.605 157.62 117.566 155.8 79.9134 164.367C42.2608 172.934 22.3359 182.26 22.3359 182.26L25.0254 196.532L155.294 171.892L152.605 157.62Z" fill="#39C2DD"/>
<path d="M116.051 179.303L115.842 178.734C114.214 174.128 109.119 171.683 104.497 173.332L83.3414 180.838C80.633 181.805 78.7011 183.965 77.8867 186.524L116.032 179.303H116.051Z" fill="#FD5855"/>
<path d="M89.1182 178.791C90.0652 181.445 92.9819 182.828 95.6335 181.881C98.2851 180.933 99.6677 178.033 98.7586 175.379L89.1371 178.791H89.1182Z" fill="#EFC09A"/>
<path d="M116.051 179.303L115.842 178.734C114.858 175.967 112.642 174.015 110.028 173.219C108.588 175.342 108.096 178.071 108.835 180.668L116.032 179.303H116.051Z" fill="#D54E54"/>
<path d="M122.092 158.492L105.69 172.934C105.103 178.677 109.441 180.573 109.441 180.573L126.619 177.332C122.642 172.044 120.255 164.955 122.092 158.511V158.492Z" fill="#D54E54"/>
<path d="M148.4 135.311L122.092 158.473C120.255 164.936 122.622 172.006 126.619 177.294L155.313 171.873L148.4 135.311Z" fill="#FED9BC"/>
<path d="M71.3711 162.017C72.5075 165.22 70.8219 168.746 67.621 169.883C64.4202 171.02 60.8973 169.333 59.7609 166.13C58.6245 162.927 60.3102 159.401 63.5111 158.264C66.7119 157.127 70.2347 158.814 71.3711 162.017Z" fill="#EFC09A"/>
<path d="M113.285 147.157C114.422 150.36 112.736 153.886 109.535 155.023C106.334 156.16 102.811 154.473 101.675 151.27C100.539 148.067 102.224 144.542 105.425 143.404C108.626 142.267 112.149 143.954 113.285 147.157Z" fill="#EFC09A"/>
<path d="M94.1366 178.185C81.4469 182.677 67.526 176.043 63.0373 163.344L58.1318 149.508L104.061 133.226L108.967 147.062C113.455 159.762 106.826 173.693 94.1366 178.185Z" fill="#FED9BC"/>
<path d="M103.379 131.274C100.993 124.545 93.6253 121.02 86.9016 123.408L65.31 131.065C58.5863 133.454 55.0635 140.827 57.4499 147.555L58.1318 149.508L62.9047 163.003C65.8403 161.96 67.3745 158.738 66.3328 155.8L64.4198 150.417C63.8706 148.882 64.685 147.195 66.2191 146.646L95.9359 136.107C97.47 135.558 99.1557 136.373 99.7049 137.908L101.618 143.291C102.66 146.229 105.879 147.764 108.815 146.721L104.042 133.226L103.36 131.274H103.379Z" fill="#25233C"/>
<path d="M100.387 161.031L78.5117 168.784C80.1027 173.276 85.046 175.626 89.5348 174.034L95.141 172.044C99.6297 170.451 101.978 165.505 100.387 161.012V161.031Z" fill="white"/>
<path d="M96.0118 175.759L91.1821 177.464C90.576 177.673 89.8942 177.351 89.6669 176.744C89.4586 176.138 89.7806 175.455 90.3866 175.228L95.2163 173.522C95.8224 173.313 96.5042 173.636 96.7315 174.242C96.9398 174.849 96.6179 175.531 96.0118 175.759Z" fill="#EFC09A"/>
<path d="M78.8145 152.237L71.5037 154.834C70.5756 155.156 69.5528 154.663 69.2119 153.734C68.8899 152.805 69.3824 151.782 70.3104 151.441L77.6212 148.844C78.5493 148.522 79.5721 149.015 79.913 149.943C80.235 150.872 79.7425 151.896 78.8145 152.237Z" fill="#25233C"/>
<path d="M97.1865 145.736L89.8757 148.332C88.9476 148.655 87.9249 148.162 87.584 147.233C87.262 146.304 87.7544 145.281 88.6825 144.94L95.9933 142.343C96.9214 142.021 97.9441 142.514 98.285 143.442C98.607 144.371 98.1146 145.395 97.1865 145.736Z" fill="#25233C"/>
<path d="M104.024 120.053C103.55 118.727 102.092 118.025 100.766 118.499L82.5078 124.981C81.182 125.455 80.4812 126.915 80.9547 128.241C81.3524 129.379 82.4699 130.042 83.6063 129.928C82.6593 130.554 82.2047 131.786 82.6025 132.904C83.0002 134.041 84.1176 134.705 85.254 134.591C84.307 135.216 83.8525 136.448 84.2502 137.567C84.7237 138.893 86.1821 139.595 87.5079 139.121L105.766 132.639C107.092 132.165 107.793 130.705 107.319 129.379C106.921 128.241 105.804 127.578 104.667 127.692C105.614 127.066 106.069 125.834 105.671 124.716C105.274 123.579 104.156 122.915 103.02 123.029C103.967 122.404 104.421 121.172 104.024 120.053Z" fill="#25233C"/>
<path d="M151.563 211.107C155.825 225.114 170.636 231.141 170.636 231.141L174.367 247.972H207.095L201.451 218.291C201.451 218.291 198.989 170.755 192.53 160.728C186.072 150.702 186.318 139.405 184.405 130.213C182.492 121.02 178.06 100.455 167.473 100.91C156.885 101.365 151.412 110.235 156.014 122.479C160.597 134.743 161.677 162.207 161.677 162.207C161.677 162.207 147.339 197.082 151.601 211.107H151.563Z" fill="#FED9BC"/>
<path d="M173.893 107.108C173.893 107.108 161.071 109.041 160.844 110.709C160.617 112.377 162.018 124.773 169.215 123.863C176.431 122.953 177.056 113.742 173.893 107.108Z" fill="#EFC09A"/>
<path d="M186.773 146.721C188.004 149.868 189.424 152.995 190.902 156.009C192.227 158.814 193.591 162.282 196.11 164.083C197.095 164.746 196.148 166.32 195.106 165.751C191.678 163.799 190.03 160.463 188.288 157.222C186.886 153.981 185.864 150.664 185.049 147.233C184.936 146.74 185.239 146.266 185.731 146.153C186.186 146.058 186.621 146.304 186.773 146.721Z" fill="#EFC09A"/>
<path d="M176.413 121.38C175.068 123.2 173.174 124.394 170.996 124.905C169.613 125.228 163.477 124.773 164.234 122.65C164.424 122.233 164.859 122.006 165.295 122.062C168.591 122.688 172.284 122.214 175.03 120.224C175.807 119.466 177.057 120.489 176.413 121.38Z" fill="#EFC09A"/>
<path d="M181.11 135.311C177.966 139.652 172 140.504 167.341 138.306C166.849 138.097 166.602 137.529 166.811 137.017C167 136.562 167.493 136.316 167.966 136.429C171.962 137.282 176.489 136.695 179.728 134.136C180.504 133.34 181.773 134.401 181.11 135.292V135.311Z" fill="#EFC09A"/>
<path d="M180.106 237.036C177.095 236.126 174.386 234.667 171.924 232.734C171.015 232.089 171.829 230.611 172.852 231.009C175.826 231.994 178.553 233.435 180.977 235.444C181.773 236.05 181.053 237.377 180.125 237.036H180.106Z" fill="#EFC09A"/>
<path d="M194.823 148.048C194.69 151.517 193.895 155.232 190.486 157.184L189.69 154.53C193.705 153.639 198.156 153.336 201.906 151.592C202.38 151.346 202.986 151.517 203.232 152.009C204.406 154.587 192.001 157.089 189.993 157.316C188.402 157.525 187.834 155.194 189.33 154.644C190.315 154.265 191.186 153.279 191.792 152.047C192.399 150.796 192.815 149.299 193.042 147.915C193.175 146.816 194.88 146.968 194.842 148.067L194.823 148.048Z" fill="#EFC09A"/>
<path d="M137.389 107.817L18.2812 130.339L29.5341 189.937L148.642 167.415L137.389 107.817Z" stroke="white" stroke-linecap="round" stroke-linejoin="round"/>
<path d="M84.4969 98.4649C83.9665 98.5597 83.3983 98.4649 82.9059 98.1238C81.94 97.4604 81.6937 96.1336 82.3566 95.148C86.6749 88.8933 95.2737 87.3201 101.524 91.6416C102.49 92.305 102.736 93.6317 102.073 94.6173C101.41 95.584 100.084 95.8304 99.0995 95.167C94.7812 92.1912 88.8341 93.2716 85.8605 97.5931C85.5196 98.0859 85.0272 98.3891 84.478 98.4839L84.4969 98.4649Z" fill="#9EE9F8"/>
<path d="M59.7234 87.4149C59.1931 87.5097 58.6249 87.4149 58.1325 87.0737C57.1665 86.4103 56.9203 85.0836 57.5832 84.098C64.4773 74.1093 74.8564 67.3997 86.7885 65.22C98.7396 63.0403 110.804 65.637 120.786 72.5362C121.752 73.1995 121.998 74.5263 121.335 75.5119C120.672 76.4786 119.346 76.725 118.361 76.0616C109.346 69.8258 98.4366 67.4755 87.6598 69.4088C87.6219 69.4088 87.5841 69.4088 87.5462 69.4277C76.7315 71.3989 67.3373 77.4831 61.0871 86.543C60.7462 87.0358 60.2537 87.3391 59.7045 87.4338L59.7234 87.4149Z" fill="#9EE9F8"/>
<path d="M72.3181 92.8167C71.7878 92.9115 71.2196 92.8167 70.7272 92.4756C69.7613 91.8122 69.515 90.4854 70.1779 89.4998C79.3638 76.1942 97.6408 72.8584 110.937 82.032C111.903 82.6954 112.149 84.0222 111.486 85.0078C110.823 85.9744 109.497 86.2208 108.512 85.5574C97.1484 77.7106 81.5419 80.5726 73.7008 91.9259C73.3599 92.4187 72.8674 92.7219 72.3181 92.8167Z" fill="#9EE9F8"/>
<path opacity="0.2" d="M11.6533 125.758L25.0249 196.532L51.2946 191.566C77.5075 161.467 106.277 133.131 132.358 102.938L11.6723 125.758H11.6533Z" fill="white"/>
</svg>
