<svg width="55" height="55" viewBox="0 0 55 55" fill="none" xmlns="http://www.w3.org/2000/svg">
<g clip-path="url(#clip0_6_31)">
<path d="M18.1228 13.7366C18.4136 12.2058 19.3006 10.8533 20.5887 9.97648C21.8767 9.09971 23.4603 8.77052 24.9911 9.06133L36.5346 11.2544C38.0654 11.5452 39.4179 12.4322 40.2947 13.7203C41.1715 15.0083 41.5007 16.5919 41.2098 18.1227L36.8237 41.2097C36.5329 42.7405 35.6459 44.093 34.3579 44.9698C33.0698 45.8466 31.4862 46.1758 29.9555 45.885L18.4119 43.6919C16.8812 43.4011 15.5286 42.5141 14.6518 41.226C13.7751 39.938 13.4459 38.3544 13.7367 36.8236L18.1228 13.7366ZM28.7144 36.6791C28.8598 35.9137 28.6952 35.1219 28.2568 34.4779C27.8184 33.8338 27.1421 33.3903 26.3767 33.2449C25.6114 33.0995 24.8196 33.2641 24.1755 33.7025C23.5315 34.1409 23.088 34.8172 22.9426 35.5825C22.7972 36.3479 22.9618 37.1397 23.4002 37.7837C23.8386 38.4278 24.5148 38.8713 25.2802 39.0167C26.0456 39.1621 26.8374 38.9975 27.4814 38.5591C28.1255 38.1207 28.569 37.4444 28.7144 36.6791ZM11.3916 14.6525C11.635 14.3482 11.7475 13.9597 11.7045 13.5725C11.6614 13.1852 11.4663 12.8309 11.162 12.5876C10.8577 12.3442 10.4692 12.2317 10.082 12.2747C9.69473 12.3178 9.34046 12.5129 9.09709 12.8172C6.71496 15.8064 5.09794 19.3316 4.38621 23.0871C3.6477 26.9743 3.91474 30.8254 5.00267 34.369C5.05952 34.5533 5.15214 34.7247 5.27522 34.8733C5.3983 35.0218 5.54943 35.1447 5.72 35.2348C5.89056 35.325 6.07721 35.3807 6.2693 35.3987C6.46138 35.4167 6.65513 35.3967 6.83948 35.3399C7.02384 35.283 7.19519 35.1904 7.34376 35.0673C7.49232 34.9442 7.61519 34.7931 7.70535 34.6225C7.7955 34.452 7.85118 34.2653 7.8692 34.0732C7.88722 33.8812 7.86723 33.6874 7.81037 33.5031C6.83145 30.3065 6.64669 26.9194 7.27209 23.6353C7.91904 20.23 9.37139 17.181 11.3916 14.6525ZM49.9439 20.5773C49.829 20.205 49.571 19.8935 49.2265 19.7115C48.8821 19.5294 48.4794 19.4916 48.107 19.6064C47.7347 19.7213 47.4233 19.9793 47.2412 20.3238C47.0591 20.6682 47.0213 21.0709 47.1362 21.4433C48.0884 24.5365 48.3219 27.9028 47.6744 31.311C47.0275 34.7163 45.5751 37.7653 43.5549 40.2938C43.3115 40.5981 43.199 40.9866 43.2421 41.3738C43.2851 41.7611 43.4803 42.1154 43.7845 42.3587C44.0888 42.6021 44.4773 42.7146 44.8645 42.6716C45.2518 42.6285 45.6061 42.4334 45.8494 42.1291C48.2316 39.1399 49.8486 35.6147 50.5603 31.8592C51.2754 28.1044 51.0638 24.2319 49.9439 20.5773ZM15.0218 19.6717C15.1362 19.5087 15.2163 19.324 15.2571 19.1291C15.2979 18.9341 15.2986 18.7329 15.2593 18.5376C15.2199 18.3424 15.1412 18.1572 15.028 17.9933C14.9147 17.8294 14.7694 17.6902 14.6007 17.5843C14.432 17.4784 14.2436 17.4078 14.0468 17.377C13.85 17.3462 13.649 17.3557 13.456 17.405C13.263 17.4543 13.082 17.5424 12.9241 17.6638C12.7662 17.7852 12.6347 17.9375 12.5375 18.1114C11.3735 19.9698 10.5665 22.0291 10.158 24.1836C9.73636 26.4028 9.75129 28.6063 10.1449 30.7054C10.1715 30.9028 10.2381 31.0927 10.3404 31.2635C10.4428 31.4344 10.5789 31.5827 10.7403 31.6993C10.9018 31.816 11.0853 31.8985 11.2797 31.942C11.4741 31.9855 11.6753 31.989 11.871 31.9523C12.0668 31.9156 12.2531 31.8395 12.4185 31.7285C12.5839 31.6176 12.7251 31.4741 12.8333 31.3069C12.9416 31.1397 13.0147 30.9522 13.0482 30.7559C13.0817 30.5595 13.075 30.3584 13.0283 30.1648C12.6956 28.3686 12.7009 26.5261 13.0439 24.7318C13.3958 22.8791 14.0782 21.1758 15.0218 19.6717ZM44.8017 24.2409C44.7135 23.8749 44.488 23.5566 44.1719 23.352C43.8558 23.1473 43.4732 23.0719 43.1031 23.1413C42.733 23.2107 42.4037 23.4196 42.1832 23.7248C41.9627 24.0301 41.8678 24.4083 41.9182 24.7815C42.2444 26.5269 42.2547 28.3617 41.9027 30.2145C41.5507 32.0672 40.8683 33.7705 39.9247 35.2746C39.741 35.6033 39.6905 35.99 39.7837 36.3548C39.8769 36.7197 40.1067 37.0348 40.4256 37.2351C40.7444 37.4353 41.1281 37.5055 41.4972 37.431C41.8663 37.3566 42.1927 37.1432 42.409 36.8349C43.5479 35.027 44.3669 32.982 44.7886 30.7627C45.2102 28.5435 45.1952 26.34 44.8017 24.2409Z" fill="url(#paint0_linear_6_31)"/>
</g>
<defs>
<linearGradient id="paint0_linear_6_31" x1="4.38621" y1="23.0871" x2="50.5603" y2="31.8593" gradientUnits="userSpaceOnUse">
<stop stop-color="#03A7C8"/>
<stop offset="0.5" stop-color="#732FFF"/>
<stop offset="1" stop-color="#AC1F51"/>
</linearGradient>
<clipPath id="clip0_6_31">
<rect width="47" height="47" fill="white" transform="translate(8.77222) rotate(10.7569)"/>
</clipPath>
</defs>
</svg>
