<svg width="77" height="77" viewBox="0 0 77 77" fill="none" xmlns="http://www.w3.org/2000/svg">
<g clip-path="url(#clip0_6_81)">
<path d="M35.1552 38.769C36.7507 40.625 37.948 42.7888 38.6729 45.1265L46.9993 46.5669L47.8303 41.7633C47.9038 41.3386 47.8055 40.9022 47.5572 40.5499C47.3088 40.1977 46.9308 39.9585 46.5061 39.8851L35.2976 37.946L35.1552 38.769ZM46.4452 49.7694L39.3775 48.5466C39.6065 50.729 39.4317 52.9349 38.8619 55.054L43.736 55.8972C44.1606 55.9707 44.5971 55.8724 44.9493 55.6241C45.3016 55.3758 45.5407 54.9977 45.6142 54.573L46.4452 49.7694ZM24.6431 32.8045C26.1091 33.0625 27.4929 33.4778 28.7945 34.0504C29.5011 33.8362 30.2698 33.7779 31.048 33.9125L47.0601 36.6826C48.3341 36.903 49.4684 37.6205 50.2134 38.6772C50.9584 39.7339 51.2531 41.0433 51.0327 42.3173L48.8166 55.127C48.5962 56.401 47.8787 57.5353 46.822 58.2803C45.7653 59.0253 44.4559 59.32 43.1819 59.0996L37.7154 58.1539C36.6441 60.3834 35.1218 62.3662 33.2448 63.9771L48.4787 66.6126C49.7527 66.833 51.0621 66.5382 52.1188 65.7932C53.1755 65.0482 53.893 63.914 54.1134 62.6399L58.8226 35.4193L44.4117 32.9262C43.1377 32.7058 42.0034 31.9883 41.2584 30.9316C40.5134 29.8749 40.2187 28.5655 40.4391 27.2915L42.9322 12.8806L28.5213 10.3874C27.2473 10.167 25.9379 10.4618 24.8812 11.2068C23.8245 11.9518 23.107 13.086 22.8866 14.3601L19.7248 32.6363C21.3641 32.4653 23.0193 32.5219 24.6431 32.8045ZM43.6415 27.8455L45.9961 14.2352L58.5761 32.0784L44.9657 29.7237C44.5411 29.6503 44.163 29.4111 43.9146 29.0589C43.6663 28.7066 43.5681 28.2702 43.6415 27.8455ZM36.0069 52.9109C35.3457 56.7329 33.1933 60.1358 30.0231 62.3708C26.853 64.6058 22.9249 65.49 19.1029 64.8288C15.2808 64.1675 11.878 62.0151 9.643 58.845C7.40797 55.6749 6.52382 51.7467 7.18503 47.9247C7.84625 44.1027 9.99867 40.6999 13.1688 38.4649C16.3389 36.2298 20.2671 35.3457 24.0891 36.0069C27.9111 36.6681 31.3139 38.8205 33.5489 41.9906C35.784 45.1608 36.6681 49.0889 36.0069 52.9109ZM30.1616 45.7847C30.0387 45.6098 29.8825 45.461 29.7019 45.3466C29.5213 45.2322 29.32 45.1546 29.1094 45.1181C28.8988 45.0817 28.683 45.0872 28.4745 45.1343C28.266 45.1813 28.0689 45.2691 27.8943 45.3924L17.9542 52.4033L16.2439 49.9734C15.9952 49.6208 15.6167 49.3813 15.1915 49.3077C14.7663 49.2342 14.3292 49.3325 13.9766 49.5812C13.6239 49.8298 13.3844 50.2084 13.3109 50.6336C13.2373 51.0588 13.3357 51.4958 13.5843 51.8485L16.2327 55.605C16.3557 55.7798 16.5119 55.9287 16.6924 56.0431C16.873 56.1574 17.0744 56.2351 17.285 56.2715C17.4956 56.308 17.7113 56.3025 17.9198 56.2554C18.1283 56.2083 18.3255 56.1206 18.5 55.9972L29.7694 48.052C29.9442 47.9291 30.0931 47.7728 30.2075 47.5923C30.3219 47.4117 30.3995 47.2103 30.4359 46.9997C30.4724 46.7891 30.4669 46.5734 30.4198 46.3649C30.3728 46.1564 30.285 45.9592 30.1616 45.7847Z" fill="url(#paint0_linear_6_81)"/>
</g>
<defs>
<linearGradient id="paint0_linear_6_81" x1="9.40113" y1="35.115" x2="57.4376" y2="43.4254" gradientUnits="userSpaceOnUse">
<stop stop-color="#03A7C8"/>
<stop offset="0.5" stop-color="#732FFF"/>
<stop offset="1" stop-color="#AC1F51"/>
</linearGradient>
<clipPath id="clip0_6_81">
<rect width="65" height="65" fill="white" transform="translate(12.0161 0.935455) rotate(9.81511)"/>
</clipPath>
</defs>
</svg>
