<svg width="359" height="154" viewBox="0 0 359 154" fill="none" xmlns="http://www.w3.org/2000/svg">
<path d="M69.9464 6.63434e-05C67.2476 0.00692072 64.61 0.803225 62.3608 2.29027C60.1116 3.77732 58.3495 5.88972 57.2931 8.36562C24.0177 10.2615 -0.103529 13.4499 0.000334124 15.9421C0.0970338 18.4164 24.0392 19.5019 57.046 18.5271C58.1921 21.6048 60.3982 24.1684 63.2706 25.7644H57.9127V35.5546H51.3586C50.9473 35.5541 50.5398 35.6345 50.1596 35.7911C49.7795 35.9477 49.434 36.1775 49.1429 36.4673C48.8519 36.7571 48.621 37.1013 48.4634 37.4801C48.3059 37.859 48.2248 38.265 48.2248 38.6751V45.6518C48.2248 47.3763 49.6252 48.7724 51.355 48.7724H95.4644C106.578 51.3788 107.82 55.3527 116.144 62.6257C114.783 70.1701 112.777 78.4071 111.209 85.5266V146.128C111.209 148.109 111.998 150.01 113.404 151.411C114.809 152.812 116.715 153.599 118.703 153.599C120.69 153.599 122.597 152.812 124.002 151.411C125.407 150.01 126.197 148.109 126.197 146.128V116.825C126.025 92.189 130.015 82.2275 143.764 63.1577L147.22 61.5581C147.22 76.3612 157.485 77.2503 171.961 80.5529H161.088C157.778 80.5529 155.092 83.2308 155.092 86.5334V122.238C155.092 125.537 157.778 128.215 161.088 128.215H197.06C200.369 128.215 203.055 125.537 203.055 122.238V86.5334C203.055 83.2308 200.369 80.5565 197.06 80.5565H186.197C200.67 77.2431 210.927 76.3576 210.927 61.5581L214.384 63.1577C231.779 81.1028 231.951 93.3173 231.951 116.822V146.124C231.951 148.106 232.74 150.006 234.146 151.407C235.551 152.808 237.457 153.595 239.445 153.595C241.432 153.595 243.339 152.808 244.744 151.407C246.15 150.006 246.939 148.106 246.939 146.124V85.5266C245.102 77.7037 243.136 69.506 241.28 61.3832C249.156 53.6889 252.387 51.9572 262.612 48.7724H306.793C307.623 48.7724 308.419 48.4436 309.006 47.8584C309.593 47.2732 309.923 46.4794 309.923 45.6518V38.6751C309.923 37.8475 309.593 37.0538 309.006 36.4686C308.419 35.8833 307.623 35.5546 306.793 35.5546H300.235V25.7644H294.877C297.751 24.1695 299.959 21.6026 301.102 18.5271C334.109 19.5019 358.051 18.4164 358.147 15.9421C358.251 13.4499 334.13 10.2651 300.855 8.36562C299.834 5.97844 298.157 3.9277 296.018 2.45027C293.878 0.972847 291.363 0.129015 288.762 0.0162539C286.162 -0.0965069 283.583 0.526401 281.322 1.81303C279.062 3.09965 277.213 4.9975 275.988 7.28735C242.656 6.27691 218.316 7.35162 218.176 9.84379C218.072 12.3181 241.868 15.4851 274.86 17.3846C275.344 19.1478 276.176 20.7971 277.307 22.2359C278.438 23.6748 279.845 24.8744 281.447 25.7644H276.089V35.5546C242.301 35.476 216.149 18.5485 179.074 17.8523C143.248 18.6092 113.246 35.5546 82.059 35.5546V25.7644H76.7011C78.3027 24.8744 79.7101 23.6748 80.841 22.2359C81.9719 20.7971 82.8036 19.1478 83.2874 17.3846C116.28 15.4851 140.075 12.3145 139.971 9.84379C139.832 7.35162 115.492 6.27334 82.1593 7.28735C80.9804 5.08093 79.2202 3.23677 77.0683 1.95336C74.9163 0.669938 72.4541 -0.00771951 69.9464 6.63434e-05ZM179.074 89.3076C187.48 89.3076 194.388 96.195 194.388 104.575C194.388 112.955 187.48 119.842 179.074 119.842C170.668 119.842 163.752 112.951 163.752 104.571C163.752 96.1915 170.665 89.3076 179.074 89.3076ZM179.074 98.2659C175.528 98.2659 172.745 101.037 172.745 104.571C172.745 108.106 175.528 110.877 179.074 110.877C182.619 110.877 185.395 108.106 185.395 104.571C185.395 101.037 182.619 98.2659 179.074 98.2659Z" fill="url(#paint0_linear_415_15391)"/>
<defs>
<linearGradient id="paint0_linear_415_15391" x1="179.074" y1="0" x2="179.074" y2="153.599" gradientUnits="userSpaceOnUse">
<stop stop-color="#D737FF"/>
<stop offset="1" stop-color="#812199"/>
</linearGradient>
</defs>
</svg>
