<svg width="95" height="95" viewBox="0 0 95 95" fill="none" xmlns="http://www.w3.org/2000/svg">
<g clip-path="url(#clip0_6_46)">
<g clip-path="url(#clip1_6_46)">
<path d="M49.347 9.80123C49.5378 9.41668 49.848 9.10427 50.2312 8.91079C50.6144 8.71731 51.0499 8.65318 51.4726 8.728L67.1214 11.4883C67.4311 11.5432 67.7234 11.6709 67.9742 11.8608C68.2249 12.0507 68.427 12.2975 68.5637 12.5808C68.7004 12.8641 68.7679 13.1758 68.7606 13.4903C68.7533 13.8048 68.6714 14.113 68.5217 14.3897L57.8716 34.0603L72.7614 36.6867C73.1278 36.7511 73.4687 36.917 73.7453 37.1657C74.022 37.4143 74.2233 37.7356 74.3263 38.093C74.4293 38.4505 74.4299 38.8296 74.328 39.1873C74.2261 39.5451 74.0257 39.867 73.7498 40.1165L40.1537 70.4957C39.8092 70.8086 39.3658 70.9907 38.9008 71.0101C38.4358 71.0294 37.9787 70.8849 37.6094 70.6017C37.24 70.3185 36.9819 69.9147 36.8799 69.4606C36.778 69.0064 36.8388 68.531 37.0516 68.1171L48.1365 46.4618L35.1363 44.1687C34.8322 44.1152 34.5447 43.9916 34.2967 43.8076C34.0487 43.6235 33.847 43.3843 33.7076 43.1087C33.5683 42.8331 33.4951 42.5288 33.4939 42.22C33.4927 41.9112 33.5636 41.6064 33.7008 41.3297L49.347 9.80123Z" fill="url(#paint0_linear_6_46)"/>
</g>
</g>
<defs>
<linearGradient id="paint0_linear_6_46" x1="34.2139" y1="37.957" x2="73.3384" y2="44.8583" gradientUnits="userSpaceOnUse">
<stop stop-color="#03A7C8"/>
<stop offset="0.5" stop-color="#732FFF"/>
<stop offset="1" stop-color="#AC1F51"/>
</linearGradient>
<clipPath id="clip0_6_46">
<rect width="85.9247" height="85.9247" fill="white" transform="translate(0 9.19394) rotate(-6.1424)"/>
</clipPath>
<clipPath id="clip1_6_46">
<rect width="63.5615" height="63.5615" fill="white" transform="translate(27.9995 4.58749) rotate(10.0037)"/>
</clipPath>
</defs>
</svg>
