<svg width="81" height="49" viewBox="0 0 81 49" fill="none" xmlns="http://www.w3.org/2000/svg">
<path d="M80.1993 36.1286C80.1993 43.2378 74.5098 49 67.4944 49H12.7049C5.68762 49 0 43.2378 0 36.1286C0 29.9455 4.30163 24.7812 10.0397 23.5423C10.8298 17.2039 16.1699 12.3031 22.6418 12.3031C24.4529 12.3031 26.1747 12.6866 27.7335 13.3788C30.6918 5.55567 38.175 0 46.9355 0C58.2894 0 67.4944 9.32566 67.4944 20.8283C67.4944 21.6504 67.4478 22.4606 67.3546 23.2591C67.4012 23.2571 67.4478 23.2571 67.4944 23.2571C74.5098 23.2571 80.1993 29.0193 80.1993 36.1286Z" fill="white"/>
<path d="M26.5882 25.4204C26.4931 25.3063 26.3825 25.2001 26.2602 25.1057C25.6759 24.6515 24.6975 24.3368 23.3232 24.1657C22.7331 24.0929 22.3313 24.0123 22.1138 23.9218C21.8984 23.8314 21.7897 23.7193 21.7897 23.5836C21.7897 23.3299 22.011 23.204 22.4535 23.204C22.7467 23.204 22.9835 23.2807 23.1582 23.4302C23.3329 23.5797 23.527 23.6564 23.7386 23.6564H26.5028C26.5339 23.6564 26.563 23.6505 26.5902 23.6387C26.6329 23.6269 26.6717 23.5993 26.7047 23.5639C26.7649 23.503 26.794 23.4322 26.794 23.3496C26.794 23.0723 26.7241 22.7969 26.5882 22.5295C26.3922 22.144 26.0583 21.7704 25.5846 21.4046C24.7791 20.7831 23.7405 20.4724 22.4749 20.4724C21.2093 20.4724 20.1843 20.7615 19.404 21.3377C18.6256 21.9159 18.2373 22.6652 18.2373 23.5836C18.2373 25.2611 19.4253 26.2523 21.8033 26.5571C22.4943 26.6476 22.9641 26.7361 23.2145 26.8226C23.463 26.9091 23.5872 27.033 23.5872 27.1943C23.5872 27.448 23.2417 27.5738 22.5506 27.5738C22.1352 27.5738 21.811 27.4853 21.5781 27.3083C21.3413 27.1313 21.1297 27.0409 20.9356 27.0409H18.3092C18.2257 27.0409 18.1539 27.0724 18.0937 27.1313C18.0335 27.1903 18.0044 27.2631 18.0044 27.3457C18.0044 28.0753 18.315 28.7066 18.9381 29.2376C19.0196 29.3084 19.105 29.3733 19.1963 29.4401C19.9883 30.0144 21.0792 30.3015 22.471 30.3015C23.6105 30.3015 24.5733 30.1049 25.3556 29.7155C25.5303 29.627 25.6953 29.5326 25.8506 29.4283C26.1515 29.2258 26.4019 29.0016 26.5941 28.7558C26.9629 28.3015 27.1453 27.7725 27.1453 27.1707C27.1453 26.4391 26.9609 25.8531 26.5941 25.4165L26.5882 25.4204Z" fill="#5B82A3"/>
<path d="M38.3112 29.843L37.9657 29.2531L35.5781 25.1802L37.1135 22.5705L38.0744 20.9382C38.1035 20.891 38.1171 20.832 38.1171 20.7632C38.1171 20.6944 38.086 20.6295 38.0259 20.5666C37.9657 20.5056 37.8958 20.4761 37.8104 20.4761H34.7472C34.4794 20.4761 34.295 20.5784 34.1921 20.7848L32.6255 23.6364V20.8537C32.6255 20.7494 32.5867 20.6629 32.513 20.5862C32.4392 20.5115 32.3518 20.4741 32.249 20.4741H29.6012C29.4983 20.4741 29.4129 20.5115 29.3372 20.5862C29.2634 20.6629 29.2266 20.7494 29.2266 20.8537V29.9276C29.2266 30.0318 29.2634 30.1203 29.3372 30.1951C29.4129 30.2698 29.4983 30.3091 29.6012 30.3091H32.249C32.3518 30.3091 32.4392 30.2698 32.513 30.1951C32.5867 30.1203 32.6255 30.0318 32.6255 29.9276V26.9207L33.9145 29.255L34.3163 29.9846C34.4289 30.199 34.6172 30.3091 34.8851 30.3091H38.0472C38.1307 30.3091 38.2006 30.2777 38.2608 30.2167C38.3229 30.1557 38.352 30.0908 38.352 30.02C38.352 29.9492 38.3384 29.8922 38.3112 29.845V29.843Z" fill="#5B82A3"/>
<path d="M50.831 20.5629C50.7709 20.5019 50.701 20.4724 50.6156 20.4724H48.0105C47.7329 20.4724 47.5388 20.5904 47.4262 20.8244L46.0402 23.6485L44.6543 20.8244C44.5436 20.5904 44.3495 20.4724 44.0719 20.4724H41.4649C41.3814 20.4724 41.3116 20.5019 41.2514 20.5629C41.1912 20.6258 41.1602 20.6868 41.1602 20.7536C41.1602 20.8205 41.1699 20.8716 41.1873 20.907L42.055 22.6455L44.3068 27.1589V29.9259C44.3068 30.0301 44.3456 30.1186 44.4194 30.1934C44.4931 30.2681 44.5805 30.3074 44.6834 30.3074H47.401C47.5039 30.3074 47.5893 30.2681 47.665 30.1934C47.7388 30.1186 47.7756 30.0301 47.7756 29.9259V27.1589L50.8951 20.907C50.9145 20.8697 50.9242 20.8166 50.9242 20.7536C50.9242 20.6907 50.8932 20.6258 50.833 20.5629H50.831Z" fill="#5B82A3"/>
<path d="M26.9141 35.5464C26.8151 34.6693 26.4501 33.9849 25.8212 33.4972C25.7202 33.4185 25.6154 33.3457 25.5028 33.2789C24.7885 32.8443 23.8548 32.6279 22.7017 32.6279H18.5709C18.5515 32.6279 18.5321 32.6279 18.5146 32.6338C18.435 32.6437 18.3671 32.6791 18.3069 32.74C18.2332 32.8167 18.1943 32.9033 18.1943 33.0075V42.0814C18.1943 42.1856 18.2332 42.2741 18.3069 42.3489C18.3807 42.4236 18.468 42.4629 18.5709 42.4629H21.4264C21.5293 42.4629 21.6147 42.4236 21.6904 42.3489C21.7641 42.2741 21.801 42.1856 21.801 42.0814V39.399H22.7017C24.0411 39.399 25.0855 39.1276 25.8289 38.5828C25.8464 38.5691 25.8658 38.5553 25.8833 38.5396C26.5899 37.9987 26.9471 37.1747 26.9471 36.0695C26.9471 35.8886 26.9374 35.7135 26.916 35.5464H26.9141ZM23.1463 36.6103C23.0181 36.7362 22.8687 36.7991 22.7017 36.7991H21.7311V35.2396H22.7017C22.925 35.2396 23.0861 35.3202 23.187 35.4775C23.2899 35.6368 23.3404 35.8355 23.3404 36.0695C23.3404 36.3035 23.2744 36.4825 23.1463 36.6103Z" fill="#6CA25A"/>
<path d="M39.0113 42.0539L37.9825 39.0745V39.0705L36.1209 33.6781L35.919 33.0901C35.8355 32.7813 35.6278 32.6279 35.2959 32.6279H32.2871C31.9532 32.6279 31.7455 32.7813 31.664 33.0901L31.4601 33.682L30.7264 35.8079L29.3947 39.6625L28.5697 42.0519C28.56 42.0794 28.5562 42.1247 28.5562 42.1837C28.5562 42.2427 28.5853 42.3056 28.6474 42.3666C28.7076 42.4275 28.7774 42.459 28.8609 42.459H31.4252C31.7028 42.459 31.8833 42.341 31.9668 42.107L32.3007 41.1787H35.2823L35.6162 42.107C35.6996 42.341 35.8782 42.459 36.1558 42.459H38.7201C38.8055 42.459 38.8754 42.4275 38.9356 42.3666C38.9957 42.3056 39.0268 42.2446 39.0268 42.1837C39.0268 42.1227 39.021 42.0775 39.0132 42.0519L39.0113 42.0539ZM33.0053 38.4412L33.7818 35.8296L34.5738 38.4412H33.0053Z" fill="#6CA25A"/>
<path d="M51.6211 32.8226C51.6211 32.8226 51.6172 32.8128 51.6152 32.8089C51.6114 32.799 51.6075 32.7912 51.6017 32.7833C51.5958 32.7735 51.59 32.7636 51.5822 32.7538C51.5745 32.744 51.5667 32.7341 51.557 32.7243C51.557 32.7243 51.5531 32.7184 51.5512 32.7164C51.491 32.6555 51.4211 32.626 51.3377 32.626H48.7598C48.4531 32.626 48.2881 32.7499 48.259 33.0036L48.1949 33.5345L47.7892 36.9505L47.2185 35.2081C47.1253 34.9367 46.97 34.803 46.7487 34.803H45.3336C45.1123 34.803 44.9551 34.9367 44.8619 35.2081L44.2932 36.9643L43.8855 33.5345L43.8215 33.0036C43.7943 32.7499 43.6293 32.626 43.3226 32.626H40.7447C40.6612 32.626 40.5914 32.6555 40.5292 32.7164C40.4691 32.7794 40.4399 32.8502 40.4399 32.9347V32.978L40.5409 33.6801L41.2416 38.6025V38.6084L41.7153 41.9261C41.7347 42.0657 41.8007 42.1916 41.9152 42.2978C41.9366 42.3174 41.9579 42.3351 41.9812 42.3508C41.9812 42.3508 41.9871 42.3548 41.989 42.3548C42.0103 42.3705 42.0336 42.3843 42.0589 42.3961C42.0589 42.3961 42.0589 42.3961 42.0628 42.3961C42.0783 42.4039 42.0958 42.4118 42.1132 42.4177C42.1307 42.4236 42.1501 42.4295 42.1695 42.4354C42.1831 42.4394 42.1948 42.4413 42.2083 42.4452C42.2258 42.4492 42.2413 42.4511 42.2608 42.4531C42.2782 42.4531 42.2957 42.457 42.3151 42.457C42.3287 42.457 42.3423 42.457 42.3559 42.457H44.3397C44.627 42.457 44.8153 42.3312 44.9085 42.0775L46.0441 39.1984L47.1816 42.0775C47.2748 42.3312 47.4631 42.457 47.7504 42.457H49.7343C49.909 42.457 50.0545 42.402 50.1691 42.2958C50.2855 42.1876 50.3515 42.0637 50.371 41.9241L50.503 40.9939L50.9494 37.8631L50.9552 37.8198L51.6444 32.978V32.9347C51.6444 32.8934 51.6385 32.8561 51.623 32.8207L51.6211 32.8226Z" fill="#6CA25A"/>
<path d="M61.3197 37.2593C60.7335 36.805 59.7571 36.4903 58.3827 36.3193C57.7926 36.2465 57.3908 36.1659 57.1734 36.0754C56.956 35.9849 56.8492 35.8728 56.8492 35.7371C56.8492 35.4834 57.0705 35.3576 57.5131 35.3576C57.8062 35.3576 58.043 35.4343 58.2177 35.5837C58.3924 35.7332 58.5865 35.8099 58.7981 35.8099H61.5623C61.638 35.8099 61.7021 35.7784 61.7642 35.7194C61.8244 35.6585 61.8535 35.5877 61.8535 35.5051C61.8535 34.8286 61.4478 34.1796 60.6442 33.5601C59.8366 32.9387 58.7981 32.6279 57.5344 32.6279C56.2707 32.6279 55.2438 32.917 54.4635 33.4932C54.4421 33.509 54.4208 33.5267 54.3994 33.5424C54.3528 33.5798 54.3101 33.6171 54.2655 33.6525C54.182 33.7214 54.1044 33.7941 54.0326 33.8708C53.986 33.922 53.9413 33.9711 53.8986 34.0223C53.8714 34.0537 53.8462 34.0852 53.8229 34.1147C53.8171 34.1245 53.8093 34.1343 53.8016 34.1442C53.7744 34.1796 53.7511 34.215 53.7259 34.2484C53.6366 34.3841 53.5589 34.5257 53.4968 34.6771C53.4793 34.7184 53.4619 34.7597 53.4483 34.801C53.4308 34.8482 53.4153 34.8935 53.4017 34.9426C53.3279 35.1924 53.293 35.4559 53.293 35.7391C53.293 35.7922 53.293 35.8433 53.2969 35.8945C53.2969 35.9417 53.3027 35.9849 53.3066 36.0302C53.3221 36.217 53.3551 36.3959 53.4036 36.5631C53.4114 36.5906 53.4191 36.6162 53.4289 36.6418C53.4754 36.7834 53.5337 36.9191 53.6055 37.0489C53.623 37.0803 53.6404 37.1098 53.6579 37.1393C53.7142 37.2298 53.7763 37.3183 53.8462 37.4029C53.8811 37.4461 53.92 37.4894 53.9569 37.5287C53.9957 37.57 54.0364 37.6093 54.0753 37.6467C54.0753 37.6467 54.0766 37.6467 54.0791 37.6467C54.1219 37.688 54.1646 37.7254 54.2092 37.7608C54.25 37.7922 54.2927 37.8257 54.3334 37.8552C54.4887 37.9692 54.6634 38.0735 54.8556 38.1639C54.91 38.1915 54.9643 38.217 55.0206 38.2426C55.0847 38.2701 55.1468 38.2977 55.2147 38.3213C55.2807 38.3488 55.3467 38.3724 55.4185 38.396C55.5564 38.4452 55.702 38.4865 55.8573 38.5238C56.0087 38.5651 56.1678 38.5985 56.3348 38.628C56.4202 38.6438 56.5037 38.6595 56.591 38.6713C56.6784 38.687 56.7657 38.6988 56.855 38.7106C57.5461 38.8011 58.0158 38.8896 58.2662 38.9761C58.5147 39.0627 58.6389 39.1866 58.6389 39.3478C58.6389 39.6015 58.2934 39.7274 57.6024 39.7274C57.187 39.7274 56.8628 39.6389 56.6298 39.4619C56.393 39.2849 56.1814 39.1944 55.9873 39.1944H53.3609C53.2774 39.1944 53.2056 39.2259 53.1454 39.2849C53.0853 39.3439 53.0562 39.4167 53.0562 39.4993C53.0562 39.5818 53.06 39.6605 53.0697 39.7411C53.0697 39.7628 53.0697 39.7824 53.0756 39.8041C53.0794 39.8375 53.0833 39.869 53.0911 39.9004C53.1086 40.0145 53.1377 40.1286 53.1746 40.2367C53.1823 40.2603 53.192 40.2859 53.2017 40.3095C53.2114 40.341 53.225 40.3744 53.2386 40.4039C53.2639 40.4649 53.293 40.5219 53.326 40.5809C53.3396 40.6124 53.357 40.6438 53.3764 40.6714C53.3764 40.6714 53.3764 40.6772 53.3803 40.6792C53.3842 40.6851 53.3862 40.6891 53.39 40.695C53.4114 40.7323 53.4366 40.7677 53.4599 40.8031C53.4871 40.8424 53.5162 40.8837 53.5473 40.9211C53.5783 40.9624 53.6094 41.0017 53.6424 41.0391C53.6754 41.0784 53.7103 41.1178 53.7453 41.1532C53.8151 41.2279 53.8889 41.2987 53.9704 41.3695C54.0578 41.4442 54.149 41.517 54.248 41.5898C55.04 42.164 56.131 42.4511 57.5228 42.4511C58.9146 42.4511 60.0405 42.1601 60.9023 41.578C61.7642 40.9958 62.1971 40.2426 62.1971 39.3203C62.1971 38.398 61.904 37.7057 61.3178 37.2514L61.3197 37.2593Z" fill="#6CA25A"/>
<path d="M60.1726 20.8637C60.6735 21.5009 60.1649 22.732 59.6621 23.2944C59.0177 24.0162 57.5618 24.6258 57.1056 23.497C56.597 22.2383 58.0393 20.4822 59.3438 20.4841C59.5476 20.4841 59.8271 20.5471 59.9863 20.6729C60.0368 20.7142 60.1338 20.8106 60.1726 20.8617V20.8637Z" fill="#FFCB00"/>
<path d="M62.4243 23.1468C62.9504 23.8175 62.3564 24.9837 61.7857 25.5087C61.215 26.0338 60.0386 26.5098 59.4116 25.9571C58.6449 25.2826 59.2447 24.0751 59.9105 23.4753C60.4754 22.9659 61.6537 22.492 62.2807 23.0033C62.3215 23.0367 62.3913 23.1075 62.4224 23.1468H62.4243Z" fill="#FFCB00"/>
<path d="M54.6191 21.6542C54.6929 21.5677 54.8288 21.43 54.9122 21.3572C55.3567 20.9757 56.0381 20.8617 56.4341 21.3042C57.1892 22.1518 56.4768 24.0279 55.3936 24.374C54.5919 24.6297 54.1008 23.9669 54.0698 23.2314C54.0484 22.7162 54.2736 22.0633 54.6191 21.6562V21.6542Z" fill="#FFCB00"/>
<path d="M58.1378 24.7261C58.858 25.3436 58.9997 26.3466 58.5648 27.2375C58.4445 27.4853 58.2834 27.6996 58.2213 27.9749C58.1553 28.2719 58.2659 28.502 58.2407 28.7931C58.1708 29.6072 57.5574 30.2936 56.7654 30.4647C55.9714 30.6377 55.4318 30.1618 55.2338 29.4283C55.0921 28.9032 55.1057 28.5944 54.6592 28.209C54.0419 27.6721 53.2402 28.0693 52.7802 27.1804C52.2735 26.1991 53.1199 25.0821 54.1293 24.8323C54.5913 24.7182 54.7893 24.8244 55.2124 24.8323C55.5541 24.8382 55.7172 24.6809 56.0122 24.5412C56.6974 24.2168 57.5768 24.2463 58.1378 24.7261Z" fill="#FFCB00"/>
<path d="M61.768 26.7123C62.4882 27.3003 61.9621 28.2659 61.3021 28.732C60.5587 29.2551 59.029 29.4891 58.7592 28.4114C58.4292 27.0977 60.7644 25.8922 61.77 26.7103L61.768 26.7123Z" fill="#FFCB00"/>
</svg>
