<svg width="41" height="37" viewBox="0 0 41 37" fill="none" xmlns="http://www.w3.org/2000/svg">
    <path d="M39.6347 8.43099C40.2793 9.34635 40.4244 10.3822 40.0698 11.5384L33.4218 33.3626C33.1156 34.3904 32.4991 35.2536 31.5725 35.9521C30.6458 36.6507 29.6586 37 28.6111 37H6.29799C5.05703 37 3.86039 36.5704 2.70807 35.7113C1.55575 34.8521 0.753965 33.7962 0.302707 32.5436C-0.0840853 31.4677 -0.100202 30.4479 0.254358 29.4844C0.254358 29.4201 0.278533 29.2033 0.326882 28.834C0.375231 28.4646 0.407463 28.1675 0.42358 27.9427C0.439696 27.8142 0.415522 27.6416 0.351056 27.4248C0.286591 27.208 0.262416 27.0514 0.278533 26.9551C0.310765 26.7784 0.375231 26.6098 0.471929 26.4492C0.568627 26.2886 0.701587 26.0999 0.870809 25.8831C1.04003 25.6663 1.17299 25.4776 1.26969 25.3171C1.64036 24.7068 2.00298 23.9721 2.35754 23.113C2.7121 22.2538 2.95385 21.5191 3.08278 20.9089C3.13113 20.7483 3.13516 20.5074 3.09487 20.1862C3.05457 19.865 3.05055 19.6402 3.08278 19.5117C3.13113 19.3351 3.26812 19.1102 3.49375 18.8372C3.71937 18.5642 3.85636 18.3796 3.90471 18.2832C4.24316 17.7051 4.5816 16.9664 4.92004 16.0671C5.25849 15.1678 5.45994 14.4451 5.52441 13.8991C5.54052 13.7546 5.52038 13.4976 5.46397 13.1283C5.40756 12.7589 5.41159 12.5341 5.47606 12.4538C5.54052 12.245 5.7178 12.0001 6.0079 11.7191C6.29799 11.438 6.47527 11.2574 6.53974 11.1771C6.84595 10.7595 7.18842 10.0811 7.56715 9.1416C7.94589 8.20215 8.16749 7.4273 8.23195 6.81706C8.24807 6.68858 8.22389 6.48383 8.15943 6.2028C8.09496 5.92177 8.07885 5.70898 8.11108 5.56445C8.14331 5.43598 8.21584 5.29145 8.32865 5.13086C8.44146 4.97027 8.58651 4.78559 8.76379 4.57682C8.94107 4.36806 9.07806 4.19944 9.17476 4.07096C9.30369 3.87826 9.43665 3.63335 9.57364 3.33626C9.71063 3.03917 9.8315 2.75814 9.93626 2.49316C10.041 2.22819 10.1699 1.93913 10.323 1.62598C10.4762 1.31283 10.6333 1.05588 10.7945 0.855143C10.9556 0.654405 11.1692 0.465712 11.4351 0.289062C11.701 0.112413 11.9911 0.0200738 12.3054 0.0120443C12.6196 0.00401476 13.0024 0.0481771 13.4537 0.144531L13.4295 0.216797C14.0419 0.0722656 14.4529 0 14.6624 0H33.0592C34.2518 0 35.1704 0.449653 35.8151 1.34896C36.4597 2.24826 36.6048 3.2921 36.2502 4.48047L29.6264 26.3047C29.0462 28.2157 28.4701 29.4482 27.8979 30.0023C27.3258 30.5563 26.2903 30.8333 24.7915 30.8333H3.78384C3.3487 30.8333 3.04249 30.9538 2.86521 31.1947C2.68793 31.4516 2.67987 31.7969 2.84103 32.2305C3.22782 33.3546 4.3882 33.9167 6.32216 33.9167H28.6353C29.1026 33.9167 29.5539 33.7922 29.989 33.5433C30.4242 33.2944 30.7062 32.9612 30.8351 32.5436L38.0875 8.76823C38.2003 8.41493 38.2406 7.95725 38.2084 7.39518C38.8208 7.63607 39.2962 7.98134 39.6347 8.43099ZM13.913 8.47917C13.8485 8.68793 13.8646 8.8686 13.9613 9.02116C14.058 9.17372 14.2192 9.25 14.4448 9.25H29.1429C29.3524 9.25 29.5579 9.17372 29.7594 9.02116C29.9608 8.8686 30.0938 8.68793 30.1582 8.47917L30.6659 6.9375C30.7304 6.72873 30.7143 6.54807 30.6176 6.39551C30.5209 6.24295 30.3597 6.16667 30.1341 6.16667H15.436C15.2264 6.16667 15.021 6.24295 14.8195 6.39551C14.6181 6.54807 14.4851 6.72873 14.4206 6.9375L13.913 8.47917ZM11.9065 14.6458C11.842 14.8546 11.8581 15.0353 11.9548 15.1878C12.0515 15.3404 12.2127 15.4167 12.4383 15.4167H27.1364C27.3459 15.4167 27.5514 15.3404 27.7529 15.1878C27.9543 15.0353 28.0873 14.8546 28.1518 14.6458L28.6594 13.1042C28.7239 12.8954 28.7078 12.7147 28.6111 12.5622C28.5144 12.4096 28.3532 12.3333 28.1276 12.3333H13.4295C13.22 12.3333 13.0145 12.4096 12.813 12.5622C12.6116 12.7147 12.4786 12.8954 12.4141 13.1042L11.9065 14.6458Z"
          fill="white"/>
</svg>
