<svg width="74" height="74" viewBox="0 0 74 74" fill="none" xmlns="http://www.w3.org/2000/svg">
<g clip-path="url(#clip0_25_438)">
<path d="M9.68305 41.8586L19.3577 40.042L24.4443 67.1311L14.7696 68.9477L9.68305 41.8586ZM55.4032 61.3179L28.3141 66.4044L22.9358 37.7616L27.1641 27.8273L26.6493 16.0712C26.6121 15.125 26.9154 14.1967 27.5043 13.455C28.0932 12.7134 28.9285 12.2075 29.8586 12.0292L30.114 11.9813C31.6533 11.6938 33.2438 12.0288 34.5365 12.9127C35.8291 13.7967 36.7182 15.1573 37.0088 16.6961L39.1887 28.3057L54.6682 25.3991C56.7206 25.0164 58.841 25.4633 60.5644 26.6417C62.2877 27.8202 63.4734 29.6341 63.8612 31.6855L66.4045 45.2301C67.0736 48.8217 66.2913 52.5321 64.229 55.5478C62.1668 58.5636 58.9929 60.6386 55.4032 61.3179Z" fill="url(#paint0_linear_25_438)"/>
</g>
<defs>
<linearGradient id="paint0_linear_25_438" x1="9.86472" y1="42.8261" x2="64.0429" y2="32.653" gradientUnits="userSpaceOnUse">
<stop stop-color="#03A7C8"/>
<stop offset="0.5" stop-color="#732FFF"/>
<stop offset="1" stop-color="#AC1F51"/>
</linearGradient>
<clipPath id="clip0_25_438">
<rect width="63" height="63" fill="white" transform="translate(0 11.6263) rotate(-10.6346)"/>
</clipPath>
</defs>
</svg>
