<svg width="49" height="49" viewBox="0 0 49 49" fill="none" xmlns="http://www.w3.org/2000/svg">
<path d="M14.5629 21.3624C16.8228 26.9181 20.8218 31.6352 25.9175 34.8148L30.4085 31.0242C30.9596 30.559 31.7268 30.4532 32.3665 30.7348C34.4157 31.6095 36.6613 32.1785 38.9952 32.3758C40.0304 32.4634 40.8057 33.382 40.7182 34.4172L40.1627 40.986C40.0752 42.0212 39.1566 42.7965 38.1214 42.709C20.4477 41.2145 7.33555 25.6799 8.83009 8.0062C8.91763 6.971 9.83624 6.19565 10.8714 6.28319L17.4591 6.84026C18.4943 6.9278 19.2696 7.8464 19.1821 8.8816C18.9831 11.2343 19.1686 13.5248 19.6867 15.6917C19.838 16.368 19.6254 17.0893 19.0538 17.5717L14.5629 21.3624Z" fill="url(#paint0_linear_412_105)"/>
<defs>
<linearGradient id="paint0_linear_412_105" x1="25.9289" y1="7.55649" x2="23.0639" y2="41.4357" gradientUnits="userSpaceOnUse">
<stop stop-color="#0DD6FF"/>
<stop offset="1" stop-color="#008FAC"/>
</linearGradient>
</defs>
</svg>
