<svg width="49" height="49" viewBox="0 0 49 49" fill="none" xmlns="http://www.w3.org/2000/svg">
<path d="M14.5638 21.3624C16.8237 26.9181 20.8227 31.6352 25.9185 34.8148L30.4095 31.0242C30.9606 30.559 31.7278 30.4532 32.3675 30.7348C34.4166 31.6095 36.6622 32.1785 38.9961 32.3758C40.0313 32.4634 40.8067 33.382 40.7192 34.4172L40.1637 40.986C40.0761 42.0212 39.1575 42.7965 38.1223 42.709C20.4487 41.2145 7.33653 25.6799 8.83107 8.0062C8.91861 6.971 9.83721 6.19565 10.8724 6.28319L17.46 6.84026C18.4952 6.9278 19.2706 7.8464 19.1831 8.8816C18.9841 11.2343 19.1695 13.5248 19.6877 15.6917C19.839 16.368 19.6264 17.0893 19.0548 17.5717L14.5638 21.3624Z" fill="url(#paint0_linear_412_73)"/>
<defs>
<linearGradient id="paint0_linear_412_73" x1="25.9298" y1="7.55649" x2="23.0649" y2="41.4357" gradientUnits="userSpaceOnUse">
<stop stop-color="#D737FF"/>
<stop offset="1" stop-color="#812199"/>
</linearGradient>
</defs>
</svg>
