<svg width="54" height="54" viewBox="0 0 54 54" fill="none" xmlns="http://www.w3.org/2000/svg">
<g clip-path="url(#clip0_412_75)">
<path d="M38.6005 8.2982L23.9479 5.06499C20.9074 4.3941 17.9116 6.30686 17.2407 9.34728L10.7743 38.6526C10.1034 41.693 12.0161 44.6889 15.0565 45.3598L29.7092 48.593C32.7496 49.2639 35.7455 47.3511 36.4164 44.3107L42.8828 15.0054C43.5537 11.965 41.6409 8.96909 38.6005 8.2982ZM33.5615 39.8392L15.2457 35.7977L20.9038 10.1556L39.2196 14.1971L33.5615 39.8392ZM26.8543 44.1215L19.528 42.5049L19.9322 40.6733L27.2585 42.2899L26.8543 44.1215Z" fill="url(#paint0_linear_412_75)"/>
</g>
<defs>
<linearGradient id="paint0_linear_412_75" x1="31.2742" y1="6.6816" x2="22.3829" y2="46.9764" gradientUnits="userSpaceOnUse">
<stop stop-color="#D737FF"/>
<stop offset="1" stop-color="#812199"/>
</linearGradient>
<clipPath id="clip0_412_75">
<rect width="45.0154" height="45.0154" fill="white" transform="translate(9.69922) rotate(12.4433)"/>
</clipPath>
</defs>
</svg>
