 <svg
          width="237"
          height="57"
          viewBox="0 0 237 57"
          fill="none"
          xmlns="http://www.w3.org/2000/svg"
        >
          <path
            d="M87.0892 14C86.8652 14 86.6926 13.9393 86.5712 13.818C86.4499 13.6967 86.3892 13.524 86.3892 13.3V4.704C86.3892 4.48 86.4452 4.312 86.5572 4.2C86.6692 4.088 86.8279 4.032 87.0332 4.032C87.2386 4.032 87.3926 4.088 87.4952 4.2C87.6072 4.312 87.6632 4.48 87.6632 4.704V12.894H91.9612V4.704C91.9612 4.48 92.0172 4.312 92.1292 4.2C92.2412 4.088 92.3952 4.032 92.5912 4.032C92.8059 4.032 92.9646 4.088 93.0672 4.2C93.1792 4.312 93.2352 4.48 93.2352 4.704V12.894H97.5332V4.704C97.5332 4.48 97.5892 4.312 97.7012 4.2C97.8132 4.088 97.9672 4.032 98.1632 4.032C98.3779 4.032 98.5366 4.088 98.6392 4.2C98.7512 4.312 98.8072 4.48 98.8072 4.704V13.3C98.8072 13.524 98.7466 13.6967 98.6252 13.818C98.5039 13.9393 98.3312 14 98.1072 14H87.0892ZM101.826 14.098C101.621 14.098 101.462 14.042 101.35 13.93C101.238 13.8087 101.182 13.6407 101.182 13.426V4.69C101.182 4.47533 101.238 4.312 101.35 4.2C101.462 4.088 101.621 4.032 101.826 4.032C102.041 4.032 102.204 4.088 102.316 4.2C102.428 4.312 102.484 4.47533 102.484 4.69V8.47H104.332L103.982 8.708L106.824 4.368C106.918 4.228 107.025 4.13467 107.146 4.088C107.277 4.04133 107.403 4.032 107.524 4.06C107.655 4.088 107.762 4.14867 107.846 4.242C107.94 4.326 107.991 4.43333 108 4.564C108.01 4.68533 107.968 4.82067 107.874 4.97L105.228 8.932L104.738 8.526C105.308 8.60067 105.798 8.81067 106.208 9.156C106.619 9.492 106.974 9.95867 107.272 10.556L108.56 13.188C108.644 13.356 108.668 13.5053 108.63 13.636C108.602 13.7667 108.537 13.874 108.434 13.958C108.332 14.0327 108.21 14.0747 108.07 14.084C107.94 14.0933 107.814 14.0653 107.692 14C107.571 13.944 107.468 13.8367 107.384 13.678L106.18 11.116C105.919 10.5653 105.616 10.1733 105.27 9.94C104.925 9.70667 104.5 9.59 103.996 9.59H102.484V13.426C102.484 13.6407 102.428 13.8087 102.316 13.93C102.214 14.042 102.05 14.098 101.826 14.098ZM114.379 14.126C113.445 14.126 112.638 13.9207 111.957 13.51C111.275 13.09 110.743 12.502 110.361 11.746C109.987 10.9807 109.801 10.0847 109.801 9.058C109.801 8.28333 109.908 7.588 110.123 6.972C110.337 6.34667 110.641 5.81467 111.033 5.376C111.434 4.928 111.915 4.58733 112.475 4.354C113.044 4.12067 113.679 4.004 114.379 4.004C115.312 4.004 116.119 4.20933 116.801 4.62C117.482 5.03067 118.009 5.614 118.383 6.37C118.756 7.126 118.943 8.01733 118.943 9.044C118.943 9.81867 118.835 10.5187 118.621 11.144C118.406 11.7693 118.098 12.306 117.697 12.754C117.305 13.202 116.829 13.5427 116.269 13.776C115.709 14.0093 115.079 14.126 114.379 14.126ZM114.379 12.978C115.051 12.978 115.625 12.824 116.101 12.516C116.577 12.208 116.941 11.76 117.193 11.172C117.454 10.584 117.585 9.87933 117.585 9.058C117.585 7.81667 117.305 6.85533 116.745 6.174C116.194 5.49267 115.405 5.152 114.379 5.152C113.707 5.152 113.128 5.306 112.643 5.614C112.167 5.91267 111.803 6.356 111.551 6.944C111.299 7.52267 111.173 8.22733 111.173 9.058C111.173 10.29 111.453 11.2513 112.013 11.942C112.573 12.6327 113.361 12.978 114.379 12.978ZM128.33 14.098C128.124 14.098 127.966 14.042 127.854 13.93C127.742 13.8087 127.686 13.6407 127.686 13.426V5.236H123.542V7.434C123.542 8.358 123.486 9.17467 123.374 9.884C123.271 10.584 123.112 11.1953 122.898 11.718C122.692 12.2313 122.431 12.6747 122.114 13.048C121.806 13.4213 121.446 13.734 121.036 13.986C120.877 14.098 120.718 14.1353 120.56 14.098C120.401 14.07 120.27 13.9813 120.168 13.832C120.056 13.664 120.018 13.5053 120.056 13.356C120.102 13.2067 120.21 13.076 120.378 12.964C120.695 12.768 120.975 12.5253 121.218 12.236C121.46 11.9373 121.666 11.564 121.834 11.116C122.002 10.668 122.128 10.1173 122.212 9.464C122.296 8.80133 122.338 8.01267 122.338 7.098V4.83C122.338 4.606 122.398 4.43333 122.52 4.312C122.641 4.19067 122.818 4.13 123.052 4.13H128.274C128.507 4.13 128.684 4.19067 128.806 4.312C128.927 4.43333 128.988 4.606 128.988 4.83V13.426C128.988 13.6407 128.932 13.8087 128.82 13.93C128.708 14.042 128.544 14.098 128.33 14.098ZM131.216 14.098C131.048 14.098 130.913 14.0607 130.81 13.986C130.717 13.9113 130.661 13.8087 130.642 13.678C130.623 13.5473 130.651 13.4027 130.726 13.244L134.548 4.592C134.632 4.396 134.739 4.256 134.87 4.172C135.001 4.07867 135.145 4.032 135.304 4.032C135.463 4.032 135.603 4.07867 135.724 4.172C135.855 4.256 135.967 4.396 136.06 4.592L139.882 13.244C139.957 13.4027 139.985 13.552 139.966 13.692C139.957 13.8227 139.905 13.9253 139.812 14C139.719 14.0653 139.588 14.098 139.42 14.098C139.233 14.098 139.084 14.0513 138.972 13.958C138.86 13.8553 138.762 13.7107 138.678 13.524L137.684 11.2L138.286 11.536H132.294L132.896 11.2L131.902 13.524C131.818 13.7293 131.725 13.8787 131.622 13.972C131.519 14.056 131.384 14.098 131.216 14.098ZM135.276 5.6L133.092 10.766L132.756 10.472H137.824L137.502 10.766L135.304 5.6H135.276ZM86.0112 35.324C85.8152 35.324 85.6659 35.268 85.5632 35.156C85.4699 35.0533 85.4232 34.9087 85.4232 34.722V32.566C85.4232 32.146 85.6379 31.936 86.0672 31.936H86.9772L86.2072 32.132C86.7486 31.5533 87.1499 30.7367 87.4112 29.682C87.6726 28.6273 87.8032 27.2927 87.8032 25.678V23.83C87.8032 23.606 87.8639 23.4333 87.9852 23.312C88.1066 23.1907 88.2792 23.13 88.5032 23.13H93.7392C93.9726 23.13 94.1499 23.1907 94.2712 23.312C94.3926 23.4333 94.4532 23.606 94.4532 23.83V32.44L93.9352 31.936H95.2092C95.4146 31.936 95.5732 31.992 95.6852 32.104C95.7972 32.2067 95.8532 32.3607 95.8532 32.566V34.722C95.8532 35.1233 95.6572 35.324 95.2652 35.324C95.0786 35.324 94.9339 35.268 94.8312 35.156C94.7286 35.0533 94.6772 34.9087 94.6772 34.722V33H86.5992V34.722C86.5992 35.1233 86.4032 35.324 86.0112 35.324ZM87.7332 31.936H93.1372V24.194H89.0072V25.776C89.0072 27.2507 88.9046 28.4827 88.6992 29.472C88.4939 30.4613 88.1719 31.2827 87.7332 31.936ZM101.568 33.126C100.635 33.126 99.8274 32.9207 99.1461 32.51C98.4647 32.09 97.9327 31.502 97.5501 30.746C97.1767 29.9807 96.9901 29.0847 96.9901 28.058C96.9901 27.2833 97.0974 26.588 97.3121 25.972C97.5267 25.3467 97.8301 24.8147 98.2221 24.376C98.6234 23.928 99.1041 23.5873 99.6641 23.354C100.233 23.1207 100.868 23.004 101.568 23.004C102.501 23.004 103.309 23.2093 103.99 23.62C104.671 24.0307 105.199 24.614 105.572 25.37C105.945 26.126 106.132 27.0173 106.132 28.044C106.132 28.8187 106.025 29.5187 105.81 30.144C105.595 30.7693 105.287 31.306 104.886 31.754C104.494 32.202 104.018 32.5427 103.458 32.776C102.898 33.0093 102.268 33.126 101.568 33.126ZM101.568 31.978C102.24 31.978 102.814 31.824 103.29 31.516C103.766 31.208 104.13 30.76 104.382 30.172C104.643 29.584 104.774 28.8793 104.774 28.058C104.774 26.8167 104.494 25.8553 103.934 25.174C103.383 24.4927 102.595 24.152 101.568 24.152C100.896 24.152 100.317 24.306 99.8321 24.614C99.3561 24.9127 98.9921 25.356 98.7401 25.944C98.4881 26.5227 98.3621 27.2273 98.3621 28.058C98.3621 29.29 98.6421 30.2513 99.2021 30.942C99.7621 31.6327 100.551 31.978 101.568 31.978ZM108.799 33.098C108.594 33.098 108.435 33.042 108.323 32.93C108.211 32.8087 108.155 32.6407 108.155 32.426V23.83C108.155 23.606 108.216 23.4333 108.337 23.312C108.458 23.1907 108.631 23.13 108.855 23.13H115.687C115.92 23.13 116.098 23.1907 116.219 23.312C116.34 23.4333 116.401 23.606 116.401 23.83V32.426C116.401 32.6407 116.345 32.8087 116.233 32.93C116.121 33.042 115.958 33.098 115.743 33.098C115.538 33.098 115.379 33.042 115.267 32.93C115.155 32.8087 115.099 32.6407 115.099 32.426V24.236H109.457V32.426C109.457 32.6407 109.401 32.8087 109.289 32.93C109.186 33.042 109.023 33.098 108.799 33.098ZM122.978 33.126C122.045 33.126 121.238 32.9207 120.556 32.51C119.875 32.09 119.343 31.502 118.96 30.746C118.587 29.9807 118.4 29.0847 118.4 28.058C118.4 27.2833 118.508 26.588 118.722 25.972C118.937 25.3467 119.24 24.8147 119.632 24.376C120.034 23.928 120.514 23.5873 121.074 23.354C121.644 23.1207 122.278 23.004 122.978 23.004C123.912 23.004 124.719 23.2093 125.4 23.62C126.082 24.0307 126.609 24.614 126.982 25.37C127.356 26.126 127.542 27.0173 127.542 28.044C127.542 28.8187 127.435 29.5187 127.22 30.144C127.006 30.7693 126.698 31.306 126.296 31.754C125.904 32.202 125.428 32.5427 124.868 32.776C124.308 33.0093 123.678 33.126 122.978 33.126ZM122.978 31.978C123.65 31.978 124.224 31.824 124.7 31.516C125.176 31.208 125.54 30.76 125.792 30.172C126.054 29.584 126.184 28.8793 126.184 28.058C126.184 26.8167 125.904 25.8553 125.344 25.174C124.794 24.4927 124.005 24.152 122.978 24.152C122.306 24.152 121.728 24.306 121.242 24.614C120.766 24.9127 120.402 25.356 120.15 25.944C119.898 26.5227 119.772 27.2273 119.772 28.058C119.772 29.29 120.052 30.2513 120.612 30.942C121.172 31.6327 121.961 31.978 122.978 31.978ZM136.929 33.098C136.724 33.098 136.565 33.042 136.453 32.93C136.341 32.8087 136.285 32.6407 136.285 32.426V24.236H132.141V26.434C132.141 27.358 132.085 28.1747 131.973 28.884C131.871 29.584 131.712 30.1953 131.497 30.718C131.292 31.2313 131.031 31.6747 130.713 32.048C130.405 32.4213 130.046 32.734 129.635 32.986C129.477 33.098 129.318 33.1353 129.159 33.098C129.001 33.07 128.87 32.9813 128.767 32.832C128.655 32.664 128.618 32.5053 128.655 32.356C128.702 32.2067 128.809 32.076 128.977 31.964C129.295 31.768 129.575 31.5253 129.817 31.236C130.06 30.9373 130.265 30.564 130.433 30.116C130.601 29.668 130.727 29.1173 130.811 28.464C130.895 27.8013 130.937 27.0127 130.937 26.098V23.83C130.937 23.606 130.998 23.4333 131.119 23.312C131.241 23.1907 131.418 23.13 131.651 23.13H136.873C137.107 23.13 137.284 23.1907 137.405 23.312C137.527 23.4333 137.587 23.606 137.587 23.83V32.426C137.587 32.6407 137.531 32.8087 137.419 32.93C137.307 33.042 137.144 33.098 136.929 33.098ZM140.6 33.098C140.394 33.098 140.236 33.042 140.124 32.93C140.012 32.8087 139.956 32.6407 139.956 32.426V23.704C139.956 23.48 140.012 23.312 140.124 23.2C140.236 23.088 140.394 23.032 140.6 23.032C140.814 23.032 140.978 23.088 141.09 23.2C141.202 23.312 141.258 23.48 141.258 23.704V27.442H146.97V23.704C146.97 23.48 147.026 23.312 147.138 23.2C147.25 23.088 147.413 23.032 147.628 23.032C147.833 23.032 147.992 23.088 148.104 23.2C148.216 23.312 148.272 23.48 148.272 23.704V32.426C148.272 32.6407 148.216 32.8087 148.104 32.93C147.992 33.042 147.833 33.098 147.628 33.098C147.413 33.098 147.25 33.042 147.138 32.93C147.026 32.8087 146.97 32.6407 146.97 32.426V28.548H141.258V32.426C141.258 32.6407 141.202 32.8087 141.09 32.93C140.987 33.042 140.824 33.098 140.6 33.098ZM151.193 33.098C151.109 33.098 151.03 33.084 150.955 33.056C150.89 33.028 150.834 32.986 150.787 32.93C150.74 32.874 150.703 32.804 150.675 32.72C150.656 32.636 150.647 32.538 150.647 32.426V23.662C150.647 23.4567 150.698 23.3027 150.801 23.2C150.913 23.088 151.062 23.032 151.249 23.032C151.445 23.032 151.594 23.088 151.697 23.2C151.8 23.3027 151.851 23.4567 151.851 23.662V31.278H151.543L157.451 23.41C157.554 23.27 157.652 23.172 157.745 23.116C157.848 23.06 157.974 23.032 158.123 23.032C158.235 23.032 158.328 23.0553 158.403 23.102C158.478 23.1487 158.538 23.2187 158.585 23.312C158.632 23.4053 158.655 23.5173 158.655 23.648V32.468C158.655 32.664 158.604 32.818 158.501 32.93C158.398 33.042 158.249 33.098 158.053 33.098C157.857 33.098 157.703 33.042 157.591 32.93C157.488 32.818 157.437 32.664 157.437 32.468V24.838H157.745L151.851 32.706C151.748 32.846 151.65 32.944 151.557 33C151.473 33.0653 151.352 33.098 151.193 33.098ZM164.09 33.098C163.875 33.098 163.712 33.042 163.6 32.93C163.488 32.8087 163.432 32.6407 163.432 32.426V24.236H160.366C160.189 24.236 160.049 24.1893 159.946 24.096C159.843 23.9933 159.792 23.8533 159.792 23.676C159.792 23.4987 159.843 23.3633 159.946 23.27C160.049 23.1767 160.189 23.13 160.366 23.13H167.8C167.987 23.13 168.127 23.1767 168.22 23.27C168.323 23.3633 168.374 23.4987 168.374 23.676C168.374 23.8533 168.323 23.9933 168.22 24.096C168.127 24.1893 167.987 24.236 167.8 24.236H164.734V32.426C164.734 32.6407 164.678 32.8087 164.566 32.93C164.463 33.042 164.305 33.098 164.09 33.098ZM170.228 33C170.004 33 169.831 32.9393 169.71 32.818C169.589 32.6967 169.528 32.524 169.528 32.3V23.83C169.528 23.606 169.589 23.4333 169.71 23.312C169.831 23.1907 170.004 23.13 170.228 23.13H175.38C175.557 23.13 175.693 23.1767 175.786 23.27C175.889 23.354 175.94 23.48 175.94 23.648C175.94 23.8253 175.889 23.9607 175.786 24.054C175.693 24.1473 175.557 24.194 175.38 24.194H170.788V27.456H175.086C175.263 27.456 175.399 27.5027 175.492 27.596C175.585 27.6893 175.632 27.82 175.632 27.988C175.632 28.1653 175.585 28.3007 175.492 28.394C175.399 28.478 175.263 28.52 175.086 28.52H170.788V31.936H175.38C175.557 31.936 175.693 31.9827 175.786 32.076C175.889 32.16 175.94 32.2907 175.94 32.468C175.94 32.6453 175.889 32.7807 175.786 32.874C175.693 32.958 175.557 33 175.38 33H170.228ZM185.109 33.098C184.904 33.098 184.745 33.042 184.633 32.93C184.521 32.8087 184.465 32.6407 184.465 32.426V24.236H180.321V26.434C180.321 27.358 180.265 28.1747 180.153 28.884C180.05 29.584 179.892 30.1953 179.677 30.718C179.472 31.2313 179.21 31.6747 178.893 32.048C178.585 32.4213 178.226 32.734 177.815 32.986C177.656 33.098 177.498 33.1353 177.339 33.098C177.18 33.07 177.05 32.9813 176.947 32.832C176.835 32.664 176.798 32.5053 176.835 32.356C176.882 32.2067 176.989 32.076 177.157 31.964C177.474 31.768 177.754 31.5253 177.997 31.236C178.24 30.9373 178.445 30.564 178.613 30.116C178.781 29.668 178.907 29.1173 178.991 28.464C179.075 27.8013 179.117 27.0127 179.117 26.098V23.83C179.117 23.606 179.178 23.4333 179.299 23.312C179.42 23.1907 179.598 23.13 179.831 23.13H185.053C185.286 23.13 185.464 23.1907 185.585 23.312C185.706 23.4333 185.767 23.606 185.767 23.83V32.426C185.767 32.6407 185.711 32.8087 185.599 32.93C185.487 33.042 185.324 33.098 185.109 33.098ZM188.835 33C188.611 33 188.439 32.9393 188.317 32.818C188.196 32.6967 188.135 32.524 188.135 32.3V23.704C188.135 23.48 188.191 23.312 188.303 23.2C188.415 23.088 188.574 23.032 188.779 23.032C188.994 23.032 189.157 23.088 189.269 23.2C189.381 23.312 189.437 23.48 189.437 23.704V27.428H192.321C193.012 27.428 193.605 27.5353 194.099 27.75C194.594 27.9553 194.967 28.2633 195.219 28.674C195.481 29.0753 195.611 29.584 195.611 30.2C195.611 31.1147 195.322 31.81 194.743 32.286C194.174 32.762 193.367 33 192.321 33H188.835ZM189.437 31.936H192.181C192.909 31.936 193.451 31.796 193.805 31.516C194.16 31.2267 194.337 30.7927 194.337 30.214C194.337 29.626 194.16 29.192 193.805 28.912C193.451 28.632 192.909 28.492 192.181 28.492H189.437V31.936ZM198.063 33.098C197.857 33.098 197.699 33.042 197.587 32.93C197.475 32.8087 197.419 32.6407 197.419 32.426V23.704C197.419 23.48 197.475 23.312 197.587 23.2C197.699 23.088 197.857 23.032 198.063 23.032C198.277 23.032 198.441 23.088 198.553 23.2C198.665 23.312 198.721 23.48 198.721 23.704V27.442H204.433V23.704C204.433 23.48 204.489 23.312 204.601 23.2C204.713 23.088 204.876 23.032 205.091 23.032C205.296 23.032 205.455 23.088 205.567 23.2C205.679 23.312 205.735 23.48 205.735 23.704V32.426C205.735 32.6407 205.679 32.8087 205.567 32.93C205.455 33.042 205.296 33.098 205.091 33.098C204.876 33.098 204.713 33.042 204.601 32.93C204.489 32.8087 204.433 32.6407 204.433 32.426V28.548H198.721V32.426C198.721 32.6407 198.665 32.8087 198.553 32.93C198.45 33.042 198.287 33.098 198.063 33.098ZM212.324 33.126C211.391 33.126 210.583 32.9207 209.902 32.51C209.221 32.09 208.689 31.502 208.306 30.746C207.933 29.9807 207.746 29.0847 207.746 28.058C207.746 27.2833 207.853 26.588 208.068 25.972C208.283 25.3467 208.586 24.8147 208.978 24.376C209.379 23.928 209.86 23.5873 210.42 23.354C210.989 23.1207 211.624 23.004 212.324 23.004C213.257 23.004 214.065 23.2093 214.746 23.62C215.427 24.0307 215.955 24.614 216.328 25.37C216.701 26.126 216.888 27.0173 216.888 28.044C216.888 28.8187 216.781 29.5187 216.566 30.144C216.351 30.7693 216.043 31.306 215.642 31.754C215.25 32.202 214.774 32.5427 214.214 32.776C213.654 33.0093 213.024 33.126 212.324 33.126ZM212.324 31.978C212.996 31.978 213.57 31.824 214.046 31.516C214.522 31.208 214.886 30.76 215.138 30.172C215.399 29.584 215.53 28.8793 215.53 28.058C215.53 26.8167 215.25 25.8553 214.69 25.174C214.139 24.4927 213.351 24.152 212.324 24.152C211.652 24.152 211.073 24.306 210.588 24.614C210.112 24.9127 209.748 25.356 209.496 25.944C209.244 26.5227 209.118 27.2273 209.118 28.058C209.118 29.29 209.398 30.2513 209.958 30.942C210.518 31.6327 211.307 31.978 212.324 31.978ZM219.555 33.098C219.349 33.098 219.191 33.042 219.079 32.93C218.967 32.8087 218.911 32.6407 218.911 32.426V23.802C218.911 23.5873 218.967 23.424 219.079 23.312C219.2 23.1907 219.368 23.13 219.583 23.13H224.679C224.865 23.13 225.005 23.1767 225.099 23.27C225.201 23.3633 225.253 23.4987 225.253 23.676C225.253 23.8533 225.201 23.9933 225.099 24.096C225.005 24.1893 224.865 24.236 224.679 24.236H220.213V32.426C220.213 32.6407 220.157 32.8087 220.045 32.93C219.933 33.042 219.769 33.098 219.555 33.098ZM230.631 33.126C229.697 33.126 228.89 32.9207 228.209 32.51C227.527 32.09 226.995 31.502 226.613 30.746C226.239 29.9807 226.053 29.0847 226.053 28.058C226.053 27.2833 226.16 26.588 226.375 25.972C226.589 25.3467 226.893 24.8147 227.285 24.376C227.686 23.928 228.167 23.5873 228.727 23.354C229.296 23.1207 229.931 23.004 230.631 23.004C231.564 23.004 232.371 23.2093 233.053 23.62C233.734 24.0307 234.261 24.614 234.635 25.37C235.008 26.126 235.195 27.0173 235.195 28.044C235.195 28.8187 235.087 29.5187 234.873 30.144C234.658 30.7693 234.35 31.306 233.949 31.754C233.557 32.202 233.081 32.5427 232.521 32.776C231.961 33.0093 231.331 33.126 230.631 33.126ZM230.631 31.978C231.303 31.978 231.877 31.824 232.353 31.516C232.829 31.208 233.193 30.76 233.445 30.172C233.706 29.584 233.837 28.8793 233.837 28.058C233.837 26.8167 233.557 25.8553 232.997 25.174C232.446 24.4927 231.657 24.152 230.631 24.152C229.959 24.152 229.38 24.306 228.895 24.614C228.419 24.9127 228.055 25.356 227.803 25.944C227.551 26.5227 227.425 27.2273 227.425 28.058C227.425 29.29 227.705 30.2513 228.265 30.942C228.825 31.6327 229.613 31.978 230.631 31.978ZM90.6032 52.126C89.6699 52.126 88.8626 51.9207 88.1812 51.51C87.4999 51.09 86.9679 50.502 86.5852 49.746C86.2119 48.9807 86.0252 48.0847 86.0252 47.058C86.0252 46.2833 86.1326 45.588 86.3472 44.972C86.5619 44.3467 86.8652 43.8147 87.2572 43.376C87.6586 42.928 88.1392 42.5873 88.6992 42.354C89.2686 42.1207 89.9032 42.004 90.6032 42.004C91.5366 42.004 92.3439 42.2093 93.0252 42.62C93.7066 43.0307 94.2339 43.614 94.6072 44.37C94.9806 45.126 95.1672 46.0173 95.1672 47.044C95.1672 47.8187 95.0599 48.5187 94.8452 49.144C94.6306 49.7693 94.3226 50.306 93.9212 50.754C93.5292 51.202 93.0532 51.5427 92.4932 51.776C91.9332 52.0093 91.3032 52.126 90.6032 52.126ZM90.6032 50.978C91.2752 50.978 91.8492 50.824 92.3252 50.516C92.8012 50.208 93.1652 49.76 93.4172 49.172C93.6786 48.584 93.8092 47.8793 93.8092 47.058C93.8092 45.8167 93.5292 44.8553 92.9692 44.174C92.4186 43.4927 91.6299 43.152 90.6032 43.152C89.9312 43.152 89.3526 43.306 88.8672 43.614C88.3912 43.9127 88.0272 44.356 87.7752 44.944C87.5232 45.5227 87.3972 46.2273 87.3972 47.058C87.3972 48.29 87.6772 49.2513 88.2372 49.942C88.7972 50.6327 89.5859 50.978 90.6032 50.978ZM97.89 52C97.666 52 97.4933 51.9393 97.372 51.818C97.2507 51.6967 97.19 51.524 97.19 51.3V42.83C97.19 42.606 97.2507 42.4333 97.372 42.312C97.4933 42.1907 97.666 42.13 97.89 42.13H103.28C103.457 42.13 103.593 42.1767 103.686 42.27C103.779 42.354 103.826 42.48 103.826 42.648C103.826 42.8253 103.779 42.9607 103.686 43.054C103.593 43.1473 103.457 43.194 103.28 43.194H98.45V46.428H101.376C102.421 46.428 103.229 46.6613 103.798 47.128C104.377 47.5947 104.666 48.2853 104.666 49.2C104.666 50.1147 104.377 50.81 103.798 51.286C103.229 51.762 102.421 52 101.376 52H97.89ZM98.45 50.936H101.236C101.964 50.936 102.505 50.796 102.86 50.516C103.215 50.2267 103.392 49.7927 103.392 49.214C103.392 48.626 103.215 48.192 102.86 47.912C102.505 47.632 101.964 47.492 101.236 47.492H98.45V50.936ZM107.117 52.098C106.912 52.098 106.753 52.042 106.641 51.93C106.529 51.8087 106.473 51.6407 106.473 51.426V42.788C106.473 42.5733 106.529 42.41 106.641 42.298C106.763 42.186 106.926 42.13 107.131 42.13H110.463C111.527 42.13 112.344 42.3913 112.913 42.914C113.492 43.4367 113.781 44.1693 113.781 45.112C113.781 46.064 113.492 46.8013 112.913 47.324C112.344 47.8467 111.527 48.108 110.463 48.108H107.775V51.426C107.775 51.6407 107.719 51.8087 107.607 51.93C107.505 52.042 107.341 52.098 107.117 52.098ZM107.775 47.058H110.295C111.023 47.058 111.569 46.8947 111.933 46.568C112.307 46.232 112.493 45.7467 112.493 45.112C112.493 44.4773 112.307 44.0013 111.933 43.684C111.569 43.3573 111.023 43.194 110.295 43.194H107.775V47.058ZM114.195 52.098C114.027 52.098 113.891 52.0607 113.789 51.986C113.695 51.9113 113.639 51.8087 113.621 51.678C113.602 51.5473 113.63 51.4027 113.705 51.244L117.527 42.592C117.611 42.396 117.718 42.256 117.849 42.172C117.979 42.0787 118.124 42.032 118.283 42.032C118.441 42.032 118.581 42.0787 118.703 42.172C118.833 42.256 118.945 42.396 119.039 42.592L122.861 51.244C122.935 51.4027 122.963 51.552 122.945 51.692C122.935 51.8227 122.884 51.9253 122.791 52C122.697 52.0653 122.567 52.098 122.399 52.098C122.212 52.098 122.063 52.0513 121.951 51.958C121.839 51.8553 121.741 51.7107 121.657 51.524L120.663 49.2L121.265 49.536H115.273L115.875 49.2L114.881 51.524C114.797 51.7293 114.703 51.8787 114.601 51.972C114.498 52.056 114.363 52.098 114.195 52.098ZM118.255 43.6L116.071 48.766L115.735 48.472H120.803L120.481 48.766L118.283 43.6H118.255ZM127.752 52.126C127.033 52.126 126.371 52.0373 125.764 51.86C125.157 51.6827 124.644 51.4307 124.224 51.104C124.103 51.0107 124.019 50.908 123.972 50.796C123.935 50.6747 123.93 50.5627 123.958 50.46C123.986 50.348 124.037 50.2547 124.112 50.18C124.196 50.1053 124.294 50.0633 124.406 50.054C124.527 50.0447 124.658 50.082 124.798 50.166C125.059 50.3527 125.339 50.5067 125.638 50.628C125.937 50.7493 126.254 50.8427 126.59 50.908C126.935 50.964 127.295 50.992 127.668 50.992C128.256 50.992 128.737 50.9267 129.11 50.796C129.483 50.6653 129.759 50.4693 129.936 50.208C130.123 49.9373 130.216 49.6013 130.216 49.2C130.216 48.6307 130.039 48.2107 129.684 47.94C129.329 47.6693 128.793 47.534 128.074 47.534H126.128C125.951 47.534 125.811 47.4873 125.708 47.394C125.615 47.3007 125.568 47.1653 125.568 46.988C125.568 46.8293 125.615 46.7033 125.708 46.61C125.811 46.5167 125.951 46.47 126.128 46.47H127.836C128.545 46.47 129.077 46.3347 129.432 46.064C129.796 45.784 129.978 45.3733 129.978 44.832C129.978 44.4867 129.894 44.188 129.726 43.936C129.558 43.6747 129.301 43.474 128.956 43.334C128.62 43.194 128.195 43.124 127.682 43.124C127.206 43.124 126.744 43.1893 126.296 43.32C125.848 43.4507 125.437 43.642 125.064 43.894C124.915 43.9873 124.779 44.0293 124.658 44.02C124.546 44.0013 124.453 43.9547 124.378 43.88C124.303 43.8053 124.252 43.712 124.224 43.6C124.196 43.488 124.201 43.376 124.238 43.264C124.285 43.1427 124.373 43.04 124.504 42.956C124.952 42.6387 125.461 42.4007 126.03 42.242C126.609 42.0833 127.197 42.004 127.794 42.004C128.569 42.004 129.213 42.116 129.726 42.34C130.239 42.564 130.627 42.8813 130.888 43.292C131.149 43.6933 131.28 44.1647 131.28 44.706C131.28 45.3127 131.098 45.8213 130.734 46.232C130.379 46.6427 129.899 46.918 129.292 47.058V46.848C129.983 46.932 130.524 47.1887 130.916 47.618C131.317 48.038 131.518 48.5887 131.518 49.27C131.518 49.858 131.383 50.3667 131.112 50.796C130.841 51.2253 130.426 51.5567 129.866 51.79C129.315 52.014 128.611 52.126 127.752 52.126ZM137.758 52.126C136.824 52.126 136.017 51.9207 135.336 51.51C134.654 51.09 134.122 50.502 133.74 49.746C133.366 48.9807 133.18 48.0847 133.18 47.058C133.18 46.2833 133.287 45.588 133.502 44.972C133.716 44.3467 134.02 43.8147 134.412 43.376C134.813 42.928 135.294 42.5873 135.854 42.354C136.423 42.1207 137.058 42.004 137.758 42.004C138.691 42.004 139.498 42.2093 140.18 42.62C140.861 43.0307 141.388 43.614 141.762 44.37C142.135 45.126 142.322 46.0173 142.322 47.044C142.322 47.8187 142.214 48.5187 142 49.144C141.785 49.7693 141.477 50.306 141.076 50.754C140.684 51.202 140.208 51.5427 139.648 51.776C139.088 52.0093 138.458 52.126 137.758 52.126ZM137.758 50.978C138.43 50.978 139.004 50.824 139.48 50.516C139.956 50.208 140.32 49.76 140.572 49.172C140.833 48.584 140.964 47.8793 140.964 47.058C140.964 45.8167 140.684 44.8553 140.124 44.174C139.573 43.4927 138.784 43.152 137.758 43.152C137.086 43.152 136.507 43.306 136.022 43.614C135.546 43.9127 135.182 44.356 134.93 44.944C134.678 45.5227 134.552 46.2273 134.552 47.058C134.552 48.29 134.832 49.2513 135.392 49.942C135.952 50.6327 136.74 50.978 137.758 50.978ZM145.044 52C144.82 52 144.648 51.9393 144.526 51.818C144.405 51.6967 144.344 51.524 144.344 51.3V42.83C144.344 42.606 144.405 42.4333 144.526 42.312C144.648 42.1907 144.82 42.13 145.044 42.13H148.362C149.044 42.13 149.622 42.2327 150.098 42.438C150.584 42.6433 150.952 42.9373 151.204 43.32C151.456 43.7027 151.582 44.1647 151.582 44.706C151.582 45.3127 151.405 45.8213 151.05 46.232C150.696 46.6427 150.21 46.918 149.594 47.058V46.848C150.285 46.932 150.826 47.1887 151.218 47.618C151.62 48.038 151.82 48.5887 151.82 49.27C151.82 50.1473 151.531 50.824 150.952 51.3C150.383 51.7667 149.576 52 148.53 52H145.044ZM145.604 50.978H148.39C149.118 50.978 149.66 50.838 150.014 50.558C150.369 50.2687 150.546 49.83 150.546 49.242C150.546 48.654 150.369 48.22 150.014 47.94C149.66 47.66 149.118 47.52 148.39 47.52H145.604V50.978ZM145.604 46.484H148.166C148.876 46.484 149.408 46.344 149.762 46.064C150.126 45.7747 150.308 45.3593 150.308 44.818C150.308 44.2767 150.126 43.866 149.762 43.586C149.408 43.2967 148.876 43.152 148.166 43.152H145.604V46.484ZM153.57 52.098C153.402 52.098 153.266 52.0607 153.164 51.986C153.07 51.9113 153.014 51.8087 152.996 51.678C152.977 51.5473 153.005 51.4027 153.08 51.244L156.902 42.592C156.986 42.396 157.093 42.256 157.224 42.172C157.354 42.0787 157.499 42.032 157.658 42.032C157.816 42.032 157.956 42.0787 158.078 42.172C158.208 42.256 158.32 42.396 158.414 42.592L162.236 51.244C162.31 51.4027 162.338 51.552 162.32 51.692C162.31 51.8227 162.259 51.9253 162.166 52C162.072 52.0653 161.942 52.098 161.774 52.098C161.587 52.098 161.438 52.0513 161.326 51.958C161.214 51.8553 161.116 51.7107 161.032 51.524L160.038 49.2L160.64 49.536H154.648L155.25 49.2L154.256 51.524C154.172 51.7293 154.078 51.8787 153.976 51.972C153.873 52.056 153.738 52.098 153.57 52.098ZM157.63 43.6L155.446 48.766L155.11 48.472H160.178L159.856 48.766L157.658 43.6H157.63ZM164.621 52.098C164.416 52.098 164.257 52.042 164.145 51.93C164.033 51.8087 163.977 51.6407 163.977 51.426V42.704C163.977 42.48 164.033 42.312 164.145 42.2C164.257 42.088 164.416 42.032 164.621 42.032C164.836 42.032 164.999 42.088 165.111 42.2C165.223 42.312 165.279 42.48 165.279 42.704V46.442H170.991V42.704C170.991 42.48 171.047 42.312 171.159 42.2C171.271 42.088 171.434 42.032 171.649 42.032C171.854 42.032 172.013 42.088 172.125 42.2C172.237 42.312 172.293 42.48 172.293 42.704V51.426C172.293 51.6407 172.237 51.8087 172.125 51.93C172.013 52.042 171.854 52.098 171.649 52.098C171.434 52.098 171.271 52.042 171.159 51.93C171.047 51.8087 170.991 51.6407 170.991 51.426V47.548H165.279V51.426C165.279 51.6407 165.223 51.8087 165.111 51.93C165.008 52.042 164.845 52.098 164.621 52.098ZM175.215 52.098C175.131 52.098 175.051 52.084 174.977 52.056C174.911 52.028 174.855 51.986 174.809 51.93C174.762 51.874 174.725 51.804 174.697 51.72C174.678 51.636 174.669 51.538 174.669 51.426V42.662C174.669 42.4567 174.72 42.3027 174.823 42.2C174.935 42.088 175.084 42.032 175.271 42.032C175.467 42.032 175.616 42.088 175.719 42.2C175.821 42.3027 175.873 42.4567 175.873 42.662V50.278H175.565L181.473 42.41C181.575 42.27 181.673 42.172 181.767 42.116C181.869 42.06 181.995 42.032 182.145 42.032C182.257 42.032 182.35 42.0553 182.425 42.102C182.499 42.1487 182.56 42.2187 182.607 42.312C182.653 42.4053 182.677 42.5173 182.677 42.648V51.468C182.677 51.664 182.625 51.818 182.523 51.93C182.42 52.042 182.271 52.098 182.075 52.098C181.879 52.098 181.725 52.042 181.613 51.93C181.51 51.818 181.459 51.664 181.459 51.468V43.838H181.767L175.873 51.706C175.77 51.846 175.672 51.944 175.579 52C175.495 52.0653 175.373 52.098 175.215 52.098ZM191.457 52.098C191.252 52.098 191.093 52.042 190.981 51.93C190.869 51.8087 190.813 51.6407 190.813 51.426V47.884H189.259C188.979 47.884 188.732 47.912 188.517 47.968C188.312 48.0147 188.125 48.108 187.957 48.248C187.799 48.388 187.649 48.5887 187.509 48.85L185.969 51.692C185.876 51.8507 185.764 51.958 185.633 52.014C185.503 52.0793 185.372 52.1027 185.241 52.084C185.12 52.0653 185.008 52.014 184.905 51.93C184.812 51.8367 184.756 51.72 184.737 51.58C184.719 51.44 184.751 51.286 184.835 51.118L186.095 48.822C186.31 48.4207 186.553 48.1267 186.823 47.94C187.103 47.744 187.43 47.646 187.803 47.646H188.181L188.111 47.842C187.066 47.842 186.254 47.5947 185.675 47.1C185.097 46.596 184.807 45.896 184.807 45C184.807 44.384 184.933 43.866 185.185 43.446C185.437 43.0167 185.811 42.69 186.305 42.466C186.8 42.242 187.402 42.13 188.111 42.13H191.401C191.635 42.13 191.812 42.1907 191.933 42.312C192.055 42.4333 192.115 42.606 192.115 42.83V51.426C192.115 51.6407 192.059 51.8087 191.947 51.93C191.835 52.042 191.672 52.098 191.457 52.098ZM188.321 46.876H190.813V43.194H188.321C187.584 43.194 187.024 43.348 186.641 43.656C186.268 43.964 186.081 44.4213 186.081 45.028C186.081 45.6347 186.268 46.0967 186.641 46.414C187.024 46.722 187.584 46.876 188.321 46.876Z"
            fill="white"
          />
          <path
            d="M80.1993 40.1286C80.1993 47.2378 74.5098 53 67.4944 53H12.7049C5.68762 53 0 47.2378 0 40.1286C0 33.9455 4.30163 28.7812 10.0397 27.5423C10.8298 21.2039 16.1699 16.3031 22.6418 16.3031C24.4529 16.3031 26.1747 16.6866 27.7335 17.3788C30.6918 9.55567 38.175 4 46.9355 4C58.2894 4 67.4944 13.3257 67.4944 24.8283C67.4944 25.6504 67.4478 26.4606 67.3546 27.2591C67.4012 27.2571 67.4478 27.2571 67.4944 27.2571C74.5098 27.2571 80.1993 33.0193 80.1993 40.1286Z"
            fill="white"
          />
          <path
            d="M26.5877 29.4206C26.4926 29.3066 26.382 29.2004 26.2597 29.106C25.6754 28.6517 24.697 28.337 23.3227 28.1659C22.7326 28.0932 22.3308 28.0126 22.1134 27.9221C21.8979 27.8316 21.7892 27.7195 21.7892 27.5838C21.7892 27.3301 22.0105 27.2043 22.4531 27.2043C22.7462 27.2043 22.983 27.281 23.1577 27.4304C23.3324 27.5799 23.5265 27.6566 23.7381 27.6566H26.5023C26.5334 27.6566 26.5625 27.6507 26.5897 27.6389C26.6324 27.6271 26.6712 27.5996 26.7042 27.5642C26.7644 27.5032 26.7935 27.4324 26.7935 27.3498C26.7935 27.0725 26.7236 26.7972 26.5877 26.5297C26.3917 26.1443 26.0578 25.7706 25.5842 25.4048C24.7786 24.7834 23.7401 24.4727 22.4744 24.4727C21.2088 24.4727 20.1838 24.7618 19.4035 25.338C18.6251 25.9162 18.2368 26.6654 18.2368 27.5838C18.2368 29.2613 19.4248 30.2525 21.8028 30.5573C22.4938 30.6478 22.9636 30.7363 23.214 30.8228C23.4625 30.9094 23.5867 31.0333 23.5867 31.1945C23.5867 31.4482 23.2412 31.5741 22.5501 31.5741C22.1347 31.5741 21.8105 31.4856 21.5776 31.3086C21.3408 31.1316 21.1292 31.0411 20.9351 31.0411H18.3087C18.2252 31.0411 18.1534 31.0726 18.0932 31.1316C18.033 31.1906 18.0039 31.2634 18.0039 31.346C18.0039 32.0756 18.3145 32.7068 18.9376 33.2378C19.0191 33.3086 19.1045 33.3735 19.1958 33.4404C19.9878 34.0146 21.0787 34.3018 22.4705 34.3018C23.61 34.3018 24.5728 34.1051 25.3551 33.7157C25.5298 33.6272 25.6948 33.5328 25.8501 33.4286C26.151 33.226 26.4014 33.0018 26.5936 32.756C26.9624 32.3017 27.1449 31.7727 27.1449 31.1709C27.1449 30.4393 26.9605 29.8533 26.5936 29.4167L26.5877 29.4206Z"
            fill="#5B82A3"
          />
          <path
            d="M38.3112 33.8435L37.9657 33.2535L35.5781 29.1807L37.1135 26.571L38.0744 24.9387C38.1035 24.8915 38.1171 24.8325 38.1171 24.7637C38.1171 24.6949 38.086 24.63 38.0259 24.567C37.9657 24.5061 37.8958 24.4766 37.8104 24.4766H34.7472C34.4794 24.4766 34.295 24.5788 34.1921 24.7853L32.6255 27.6369V24.8542C32.6255 24.7499 32.5867 24.6634 32.513 24.5867C32.4392 24.512 32.3518 24.4746 32.249 24.4746H29.6012C29.4983 24.4746 29.4129 24.512 29.3372 24.5867C29.2634 24.6634 29.2266 24.7499 29.2266 24.8542V33.9281C29.2266 34.0323 29.2634 34.1208 29.3372 34.1955C29.4129 34.2703 29.4983 34.3096 29.6012 34.3096H32.249C32.3518 34.3096 32.4392 34.2703 32.513 34.1955C32.5867 34.1208 32.6255 34.0323 32.6255 33.9281V30.9211L33.9145 33.2555L34.3163 33.9851C34.4289 34.1995 34.6172 34.3096 34.8851 34.3096H38.0472C38.1307 34.3096 38.2006 34.2781 38.2608 34.2172C38.3229 34.1562 38.352 34.0913 38.352 34.0205C38.352 33.9497 38.3384 33.8927 38.3112 33.8455V33.8435Z"
            fill="#5B82A3"
          />
          <path
            d="M50.831 24.5631C50.7709 24.5022 50.701 24.4727 50.6156 24.4727H48.0105C47.7329 24.4727 47.5388 24.5907 47.4262 24.8247L46.0402 27.6487L44.6543 24.8247C44.5436 24.5907 44.3495 24.4727 44.0719 24.4727H41.4649C41.3814 24.4727 41.3116 24.5022 41.2514 24.5631C41.1912 24.6261 41.1602 24.687 41.1602 24.7539C41.1602 24.8208 41.1699 24.8719 41.1873 24.9073L42.055 26.6458L44.3068 31.1591V33.9261C44.3068 34.0304 44.3456 34.1189 44.4194 34.1936C44.4931 34.2683 44.5805 34.3077 44.6834 34.3077H47.401C47.5039 34.3077 47.5893 34.2683 47.665 34.1936C47.7388 34.1189 47.7756 34.0304 47.7756 33.9261V31.1591L50.8951 24.9073C50.9145 24.8699 50.9242 24.8168 50.9242 24.7539C50.9242 24.691 50.8932 24.6261 50.833 24.5631H50.831Z"
            fill="#5B82A3"
          />
          <path
            d="M26.915 39.5464C26.816 38.6693 26.4511 37.9849 25.8222 37.4972C25.7212 37.4185 25.6164 37.3457 25.5038 37.2789C24.7895 36.8443 23.8558 36.6279 22.7027 36.6279H18.5719C18.5525 36.6279 18.5331 36.6279 18.5156 36.6338C18.436 36.6437 18.3681 36.6791 18.3079 36.74C18.2341 36.8167 18.1953 36.9033 18.1953 37.0075V46.0814C18.1953 46.1856 18.2341 46.2741 18.3079 46.3489C18.3817 46.4236 18.469 46.4629 18.5719 46.4629H21.4274C21.5302 46.4629 21.6156 46.4236 21.6914 46.3489C21.7651 46.2741 21.802 46.1856 21.802 46.0814V43.399H22.7027C24.0421 43.399 25.0865 43.1276 25.8299 42.5828C25.8474 42.5691 25.8668 42.5553 25.8843 42.5396C26.5909 41.9987 26.948 41.1747 26.948 40.0695C26.948 39.8886 26.9383 39.7135 26.917 39.5464H26.915ZM23.1472 40.6103C23.0191 40.7362 22.8696 40.7991 22.7027 40.7991H21.7321V39.2396H22.7027C22.9259 39.2396 23.0871 39.3202 23.188 39.4775C23.2909 39.6368 23.3413 39.8355 23.3413 40.0695C23.3413 40.3035 23.2753 40.4825 23.1472 40.6103Z"
            fill="#6CA25A"
          />
          <path
            d="M39.0118 46.0539L37.9829 43.0745V43.0705L36.1214 37.6781L35.9195 37.0901C35.836 36.7813 35.6283 36.6279 35.2964 36.6279H32.2876C31.9537 36.6279 31.746 36.7813 31.6644 37.0901L31.4606 37.682L30.7269 39.8079L29.3952 43.6625L28.5702 46.0519C28.5605 46.0794 28.5566 46.1247 28.5566 46.1837C28.5566 46.2427 28.5858 46.3056 28.6479 46.3666C28.708 46.4275 28.7779 46.459 28.8614 46.459H31.4257C31.7033 46.459 31.8838 46.341 31.9673 46.107L32.3012 45.1787H35.2828L35.6167 46.107C35.7001 46.341 35.8787 46.459 36.1563 46.459H38.7206C38.806 46.459 38.8759 46.4275 38.9361 46.3666C38.9962 46.3056 39.0273 46.2446 39.0273 46.1837C39.0273 46.1227 39.0215 46.0775 39.0137 46.0519L39.0118 46.0539ZM33.0058 42.4412L33.7823 39.8296L34.5743 42.4412H33.0058Z"
            fill="#6CA25A"
          />
          <path
            d="M51.6206 36.8226C51.6206 36.8226 51.6167 36.8128 51.6148 36.8089C51.6109 36.799 51.607 36.7912 51.6012 36.7833C51.5953 36.7735 51.5895 36.7636 51.5817 36.7538C51.574 36.744 51.5662 36.7341 51.5565 36.7243C51.5565 36.7243 51.5526 36.7184 51.5507 36.7164C51.4905 36.6555 51.4206 36.626 51.3372 36.626H48.7593C48.4526 36.626 48.2876 36.7499 48.2585 37.0036L48.1944 37.5345L47.7887 40.9505L47.218 39.2081C47.1248 38.9367 46.9695 38.803 46.7482 38.803H45.3331C45.1118 38.803 44.9546 38.9367 44.8614 39.2081L44.2927 40.9643L43.885 37.5345L43.821 37.0036C43.7938 36.7499 43.6288 36.626 43.3221 36.626H40.7442C40.6607 36.626 40.5909 36.6555 40.5288 36.7164C40.4686 36.7794 40.4395 36.8502 40.4395 36.9347V36.978L40.5404 37.6801L41.2412 42.6025V42.6084L41.7148 45.9261C41.7342 46.0657 41.8002 46.1916 41.9147 46.2978C41.9361 46.3174 41.9574 46.3351 41.9807 46.3508C41.9807 46.3508 41.9866 46.3548 41.9885 46.3548C42.0099 46.3705 42.0332 46.3843 42.0584 46.3961C42.0584 46.3961 42.0584 46.3961 42.0623 46.3961C42.0778 46.4039 42.0953 46.4118 42.1127 46.4177C42.1302 46.4236 42.1496 46.4295 42.169 46.4354C42.1826 46.4394 42.1943 46.4413 42.2079 46.4452C42.2253 46.4492 42.2409 46.4511 42.2603 46.4531C42.2777 46.4531 42.2952 46.457 42.3146 46.457C42.3282 46.457 42.3418 46.457 42.3554 46.457H44.3393C44.6265 46.457 44.8148 46.3312 44.908 46.0775L46.0436 43.1984L47.1811 46.0775C47.2743 46.3312 47.4626 46.457 47.7499 46.457H49.7338C49.9085 46.457 50.0541 46.402 50.1686 46.2958C50.2851 46.1876 50.3511 46.0637 50.3705 45.9241L50.5025 44.9939L50.9489 41.8631L50.9548 41.8198L51.6439 36.978V36.9347C51.6439 36.8934 51.638 36.8561 51.6225 36.8207L51.6206 36.8226Z"
            fill="#6CA25A"
          />
          <path
            d="M61.3202 41.2593C60.734 40.805 59.7575 40.4903 58.3832 40.3193C57.7931 40.2465 57.3913 40.1659 57.1739 40.0754C56.9564 39.9849 56.8497 39.8728 56.8497 39.7371C56.8497 39.4834 57.071 39.3576 57.5136 39.3576C57.8067 39.3576 58.0435 39.4343 58.2182 39.5837C58.3929 39.7332 58.587 39.8099 58.7986 39.8099H61.5628C61.6385 39.8099 61.7026 39.7784 61.7647 39.7194C61.8249 39.6585 61.854 39.5877 61.854 39.5051C61.854 38.8286 61.4483 38.1796 60.6447 37.5601C59.8371 36.9387 58.7986 36.6279 57.5349 36.6279C56.2712 36.6279 55.2443 36.917 54.464 37.4932C54.4426 37.509 54.4213 37.5267 54.3999 37.5424C54.3533 37.5798 54.3106 37.6171 54.266 37.6525C54.1825 37.7214 54.1049 37.7941 54.033 37.8708C53.9865 37.922 53.9418 37.9711 53.8991 38.0223C53.8719 38.0537 53.8467 38.0852 53.8234 38.1147C53.8176 38.1245 53.8098 38.1343 53.802 38.1442C53.7749 38.1796 53.7516 38.215 53.7263 38.2484C53.637 38.3841 53.5594 38.5257 53.4973 38.6771C53.4798 38.7184 53.4623 38.7597 53.4488 38.801C53.4313 38.8482 53.4158 38.8935 53.4022 38.9426C53.3284 39.1924 53.2935 39.4559 53.2935 39.7391C53.2935 39.7922 53.2935 39.8433 53.2973 39.8945C53.2973 39.9417 53.3032 39.9849 53.307 40.0302C53.3226 40.217 53.3556 40.3959 53.4041 40.5631C53.4119 40.5906 53.4196 40.6162 53.4293 40.6418C53.4759 40.7834 53.5342 40.9191 53.606 41.0489C53.6235 41.0803 53.6409 41.1098 53.6584 41.1393C53.7147 41.2298 53.7768 41.3183 53.8467 41.4029C53.8816 41.4461 53.9205 41.4894 53.9573 41.5287C53.9962 41.57 54.0369 41.6093 54.0758 41.6467C54.0758 41.6467 54.077 41.6467 54.0796 41.6467C54.1223 41.688 54.165 41.7254 54.2097 41.7608C54.2505 41.7922 54.2932 41.8257 54.3339 41.8552C54.4892 41.9692 54.6639 42.0735 54.8561 42.1639C54.9105 42.1915 54.9648 42.217 55.0211 42.2426C55.0852 42.2701 55.1473 42.2977 55.2152 42.3213C55.2812 42.3488 55.3472 42.3724 55.419 42.396C55.5569 42.4452 55.7024 42.4865 55.8577 42.5238C56.0092 42.5651 56.1683 42.5985 56.3353 42.628C56.4207 42.6438 56.5042 42.6595 56.5915 42.6713C56.6789 42.687 56.7662 42.6988 56.8555 42.7106C57.5466 42.8011 58.0163 42.8896 58.2667 42.9761C58.5152 43.0627 58.6394 43.1866 58.6394 43.3478C58.6394 43.6015 58.2939 43.7274 57.6028 43.7274C57.1874 43.7274 56.8633 43.6389 56.6303 43.4619C56.3935 43.2849 56.1819 43.1944 55.9878 43.1944H53.3614C53.2779 43.1944 53.2061 43.2259 53.1459 43.2849C53.0858 43.3439 53.0566 43.4167 53.0566 43.4993C53.0566 43.5818 53.0605 43.6605 53.0702 43.7411C53.0702 43.7628 53.0702 43.7824 53.076 43.8041C53.0799 43.8375 53.0838 43.869 53.0916 43.9004C53.1091 44.0145 53.1382 44.1286 53.175 44.2367C53.1828 44.2603 53.1925 44.2859 53.2022 44.3095C53.2119 44.341 53.2255 44.3744 53.2391 44.4039C53.2643 44.4649 53.2935 44.5219 53.3265 44.5809C53.34 44.6124 53.3575 44.6438 53.3769 44.6714C53.3769 44.6714 53.3769 44.6772 53.3808 44.6792C53.3847 44.6851 53.3866 44.6891 53.3905 44.695C53.4119 44.7323 53.4371 44.7677 53.4604 44.8031C53.4876 44.8424 53.5167 44.8837 53.5478 44.9211C53.5788 44.9624 53.6099 45.0017 53.6429 45.0391C53.6759 45.0784 53.7108 45.1178 53.7458 45.1532C53.8156 45.2279 53.8894 45.2987 53.9709 45.3695C54.0583 45.4442 54.1495 45.517 54.2485 45.5898C55.0405 46.164 56.1314 46.4511 57.5233 46.4511C58.9151 46.4511 60.041 46.1601 60.9028 45.578C61.7647 44.9958 62.1976 44.2426 62.1976 43.3203C62.1976 42.398 61.9045 41.7057 61.3182 41.2514L61.3202 41.2593Z"
            fill="#6CA25A"
          />
          <path
            d="M60.1736 24.8639C60.6744 25.5011 60.1659 26.7322 59.6631 27.2947C59.0186 28.0164 57.5628 28.626 57.1066 27.4972C56.598 26.2386 58.0403 24.4824 59.3447 24.4844C59.5486 24.4844 59.8281 24.5473 59.9873 24.6732C60.0377 24.7145 60.1348 24.8108 60.1736 24.862V24.8639Z"
            fill="#FFCB00"
          />
          <path
            d="M62.4248 27.1476C62.9509 27.8182 62.3569 28.9844 61.7862 29.5095C61.2155 30.0346 60.0391 30.5105 59.4121 29.9579C58.6454 29.2833 59.2452 28.0758 59.911 27.476C60.4759 26.9667 61.6542 26.4927 62.2812 27.004C62.3219 27.0375 62.3918 27.1083 62.4229 27.1476H62.4248Z"
            fill="#FFCB00"
          />
          <path
            d="M54.6191 25.6542C54.6929 25.5677 54.8288 25.43 54.9122 25.3572C55.3567 24.9757 56.0381 24.8617 56.4341 25.3042C57.1892 26.1518 56.4768 28.0279 55.3936 28.374C54.5919 28.6297 54.1008 27.9669 54.0698 27.2314C54.0484 26.7162 54.2736 26.0633 54.6191 25.6562V25.6542Z"
            fill="#FFCB00"
          />
          <path
            d="M58.1378 28.7266C58.858 29.3441 58.9997 30.3471 58.5648 31.238C58.4445 31.4857 58.2834 31.7001 58.2213 31.9754C58.1553 32.2724 58.2659 32.5025 58.2407 32.7935C58.1708 33.6077 57.5574 34.2941 56.7654 34.4652C55.9714 34.6382 55.4318 34.1623 55.2338 33.4288C55.0921 32.9037 55.1057 32.5949 54.6592 32.2095C54.0419 31.6726 53.2402 32.0698 52.7802 31.1809C52.2735 30.1996 53.1199 29.0825 54.1293 28.8328C54.5913 28.7187 54.7893 28.8249 55.2124 28.8328C55.5541 28.8387 55.7172 28.6814 56.0122 28.5417C56.6974 28.2172 57.5768 28.2467 58.1378 28.7266Z"
            fill="#FFCB00"
          />
          <path
            d="M61.767 30.713C62.4872 31.301 61.9612 32.2666 61.3012 32.7327C60.5577 33.2558 59.028 33.4899 58.7582 32.4122C58.4282 31.0985 60.7635 29.8929 61.769 30.711L61.767 30.713Z"
            fill="#FFCB00"
          />
        </svg>