<svg width="84" height="36" viewBox="0 0 84 36" fill="none" xmlns="http://www.w3.org/2000/svg">
    <path d="M16.4052 0C15.7723 0.00160651 15.1536 0.188242 14.6261 0.536771C14.0986 0.8853 13.6853 1.3804 13.4375 1.96069C5.63311 2.40505 -0.0242816 3.15234 7.83656e-05 3.73645C0.0227583 4.31637 5.63815 4.57077 13.3796 4.34231C13.6484 5.06366 14.1658 5.6645 14.8395 6.03857H13.5829V8.33315H12.0457C11.9492 8.33304 11.8536 8.35188 11.7644 8.38858C11.6753 8.42529 11.5942 8.47915 11.526 8.54708C11.4577 8.615 11.4036 8.69567 11.3666 8.78446C11.3297 8.87325 11.3107 8.96842 11.3107 9.06454V10.6997C11.3107 11.1039 11.6391 11.4311 12.0448 11.4311H22.3902C24.9968 12.042 25.2882 12.9734 27.2404 14.678C26.9212 16.4462 26.4508 18.3768 26.0829 20.0454V34.2489C26.0829 34.7133 26.2681 35.1587 26.5977 35.4871C26.9273 35.8155 27.3744 36 27.8406 36C28.3067 36 28.7538 35.8155 29.0834 35.4871C29.4131 35.1587 29.5983 34.7133 29.5983 34.2489V27.3811C29.5579 21.6069 30.4937 19.2722 33.7185 14.8027L34.5291 14.4278C34.5291 17.8973 36.9365 18.1056 40.3318 18.8797H37.7815C37.0054 18.8797 36.3754 19.5073 36.3754 20.2814V28.6497C36.3754 29.4229 37.0054 30.0506 37.7815 30.0506H46.2185C46.9946 30.0506 47.6246 29.4229 47.6246 28.6497V20.2814C47.6246 19.5073 46.9946 18.8806 46.2185 18.8806H43.6708C47.0652 18.104 49.4709 17.8964 49.4709 14.4278L50.2815 14.8027C54.3614 19.0086 54.4017 21.8714 54.4017 27.3802V34.2481C54.4017 34.7125 54.5869 35.1579 54.9166 35.4863C55.2462 35.8147 55.6933 35.9992 56.1594 35.9992C56.6256 35.9992 57.0727 35.8147 57.4023 35.4863C57.7319 35.1579 57.9171 34.7125 57.9171 34.2481V20.0454C57.4862 18.2119 57.0251 16.2906 56.5899 14.3868C58.4371 12.5834 59.1948 12.1775 61.593 11.4311H71.9552C72.1499 11.4311 72.3366 11.354 72.4743 11.2169C72.612 11.0797 72.6893 10.8937 72.6893 10.6997V9.06454C72.6893 8.87056 72.612 8.68453 72.4743 8.54737C72.3366 8.41021 72.1499 8.33315 71.9552 8.33315H70.4172V6.03857H69.1605C69.8347 5.66475 70.3525 5.06312 70.6204 4.34231C78.3619 4.57077 83.9772 4.31637 83.9999 3.73645C84.0243 3.15234 78.3669 2.40589 70.5625 1.96069C70.3232 1.40119 69.9299 0.920546 69.428 0.574272C68.9262 0.227997 68.3362 0.0302225 67.7263 0.00379399C67.1164 -0.0226345 66.5115 0.123361 65.9813 0.424916C65.4512 0.726471 65.0175 1.17128 64.7304 1.70797C56.9125 1.47115 51.2039 1.72303 51.1711 2.30714C51.1467 2.88706 56.7277 3.62933 64.4658 4.07453C64.5792 4.48778 64.7743 4.87433 65.0395 5.21157C65.3048 5.54881 65.6349 5.82996 66.0105 6.03857H64.7539V8.33315C56.8293 8.31474 50.6957 4.34733 42 4.18415C33.5975 4.36156 26.5608 8.33315 19.2461 8.33315V6.03857H17.9895C18.3651 5.82996 18.6952 5.54881 18.9605 5.21157C19.2257 4.87433 19.4208 4.48778 19.5342 4.07453C27.2723 3.62933 32.8533 2.88623 32.8289 2.30714C32.7961 1.72303 27.0875 1.47031 19.2696 1.70797C18.9931 1.19084 18.5803 0.758609 18.0756 0.457806C17.5709 0.157002 16.9934 -0.00182482 16.4052 0ZM42 20.9316C43.9715 20.9316 45.5918 22.5459 45.5918 24.5099C45.5918 26.4739 43.9715 28.0882 42 28.0882C40.0285 28.0882 38.4065 26.4731 38.4065 24.5091C38.4065 22.545 40.0277 20.9316 42 20.9316ZM42 23.0312C41.1684 23.0312 40.5157 23.6806 40.5157 24.5091C40.5157 25.3375 41.1684 25.9869 42 25.9869C42.8316 25.9869 43.4826 25.3375 43.4826 24.5091C43.4826 23.6806 42.8316 23.0312 42 23.0312Z"
          fill="url(#paint0_linear_0_533)"/>
    <defs>
        <linearGradient id="paint0_linear_0_533" x1="0" y1="18" x2="84" y2="18" gradientUnits="userSpaceOnUse">
            <stop stop-color="#03A7C8"/>
            <stop offset="0.5" stop-color="#732FFF"/>
            <stop offset="1" stop-color="#AC1F51"/>
        </linearGradient>
    </defs>
</svg>
