<svg width="44" height="44" viewBox="0 0 44 44" fill="none" xmlns="http://www.w3.org/2000/svg">
<circle cx="22" cy="22" r="22" fill="white"/>
<path fill-rule="evenodd" clip-rule="evenodd" d="M30.5549 13.6732C30.8267 13.5587 31.1243 13.5193 31.4165 13.5589C31.7088 13.5985 31.9851 13.7157 32.2167 13.8983C32.4482 14.0809 32.6267 14.3223 32.7333 14.5972C32.84 14.8722 32.871 15.1707 32.8231 15.4618L30.3283 30.5945C30.0863 32.0542 28.4847 32.8913 27.146 32.1642C26.0262 31.5559 24.363 30.6187 22.867 29.6408C22.119 29.1513 19.8277 27.5838 20.1093 26.4684C20.3513 25.5147 24.2013 21.9309 26.4013 19.8002C27.2648 18.9631 26.871 18.4802 25.8513 19.2502C23.3191 21.162 19.2535 24.0693 17.9093 24.8877C16.7235 25.6093 16.1053 25.7325 15.3661 25.6093C14.0175 25.3849 12.7668 25.0373 11.746 24.6138C10.3666 24.0418 10.4337 22.1454 11.7449 21.5932L30.5549 13.6732Z" fill="#2B1252"/>
</svg>
