<svg width="28" height="28" viewBox="0 0 28 28" fill="none" xmlns="http://www.w3.org/2000/svg">
<circle cx="14" cy="14" r="14" fill="url(#paint0_linear_25_363)"/>
<path d="M13.8 16.34C13.4533 16.34 13.18 16.2267 12.98 16C12.78 15.7733 12.68 15.4733 12.68 15.1C12.68 14.74 12.72 14.4067 12.8 14.1C12.8933 13.78 13.0333 13.4667 13.22 13.16C13.42 12.84 13.68 12.52 14 12.2C14.2133 11.9733 14.38 11.7733 14.5 11.6C14.6333 11.4267 14.7267 11.2667 14.78 11.12C14.8333 10.96 14.86 10.8 14.86 10.64C14.86 10.3333 14.7467 10.1 14.52 9.94C14.2933 9.78 13.9667 9.7 13.54 9.7C13.1133 9.7 12.7133 9.74667 12.34 9.84C11.9667 9.93333 11.6067 10.0733 11.26 10.26C10.86 10.4733 10.5067 10.5467 10.2 10.48C9.89333 10.4 9.65333 10.24 9.48 10C9.30667 9.76 9.20667 9.48 9.18 9.16C9.16667 8.84 9.25333 8.52667 9.44 8.22C9.64 7.91333 9.94667 7.66 10.36 7.46C10.9067 7.19333 11.4867 7 12.1 6.88C12.7133 6.74667 13.2867 6.68 13.82 6.68C14.74 6.68 15.5467 6.82667 16.24 7.12C16.9467 7.41333 17.4933 7.82667 17.88 8.36C18.2667 8.88 18.46 9.49333 18.46 10.2C18.46 10.6 18.4 10.98 18.28 11.34C18.16 11.7 17.9667 12.0533 17.7 12.4C17.4333 12.7333 17.06 13.0733 16.58 13.42C16.1667 13.7267 15.8467 14 15.62 14.24C15.3933 14.4667 15.2267 14.6867 15.12 14.9C15.0267 15.1133 14.9533 15.3467 14.9 15.6C14.8467 15.8133 14.7333 15.9933 14.56 16.14C14.3867 16.2733 14.1333 16.34 13.8 16.34ZM13.74 21.12C13.1267 21.12 12.64 20.94 12.28 20.58C11.9333 20.22 11.76 19.7467 11.76 19.16C11.76 18.5867 11.9333 18.1267 12.28 17.78C12.64 17.42 13.1267 17.24 13.74 17.24C14.3533 17.24 14.8333 17.42 15.18 17.78C15.5267 18.1267 15.7 18.5867 15.7 19.16C15.7 19.7467 15.5267 20.22 15.18 20.58C14.8333 20.94 14.3533 21.12 13.74 21.12Z" fill="white"/>
<defs>
<linearGradient id="paint0_linear_25_363" x1="14.2642" y1="4.39364e-07" x2="14.2642" y2="39.3585" gradientUnits="userSpaceOnUse">
<stop stop-color="#03A7C8"/>
<stop offset="0.5" stop-color="#732FFF"/>
<stop offset="1" stop-color="#AC1F51"/>
</linearGradient>
</defs>
</svg>
