<svg width="44" height="44" viewBox="0 0 44 44" fill="none" xmlns="http://www.w3.org/2000/svg">
<circle cx="22" cy="22" r="22" fill="white"/>
<path d="M31.2748 12.6764C30.1401 11.5306 28.7887 10.6221 27.2993 10.0038C25.81 9.38558 24.2125 9.06992 22.5999 9.07526C15.8432 9.07526 10.3363 14.5821 10.3363 21.3389C10.3363 23.5045 10.9056 25.6083 11.9698 27.4645L10.2373 33.8253L16.7342 32.1175C18.5286 33.0951 20.5457 33.6149 22.5999 33.6149C29.3567 33.6149 34.8636 28.108 34.8636 21.3513C34.8636 18.0719 33.5889 14.9905 31.2748 12.6764ZM22.5999 31.5359C20.7684 31.5359 18.9741 31.0409 17.4024 30.1128L17.0312 29.89L13.1702 30.9048L14.1973 27.1428L13.9498 26.7591C12.932 25.1344 12.3917 23.2561 12.3906 21.3389C12.3906 15.7206 16.9693 11.1419 22.5876 11.1419C25.3101 11.1419 27.8717 12.2061 29.7898 14.1366C30.7397 15.0819 31.4925 16.2064 32.0045 17.4449C32.5164 18.6834 32.7774 20.0112 32.7722 21.3513C32.7969 26.9695 28.2182 31.5359 22.5999 31.5359ZM28.1934 23.9129C27.8841 23.7644 26.3743 23.0219 26.1021 22.9105C25.8174 22.8115 25.6194 22.762 25.4091 23.059C25.1987 23.3684 24.6171 24.0614 24.4438 24.2594C24.2706 24.4698 24.0849 24.4945 23.7756 24.3336C23.4662 24.1851 22.4762 23.851 21.3129 22.8115C20.3972 21.9948 19.7908 20.9924 19.6052 20.683C19.4319 20.3736 19.5804 20.2128 19.7413 20.0519C19.8774 19.9158 20.0507 19.693 20.1992 19.5198C20.3477 19.3465 20.4096 19.2104 20.5086 19.0124C20.6076 18.802 20.5581 18.6288 20.4838 18.4803C20.4096 18.3318 19.7908 16.822 19.5433 16.2033C19.2958 15.6093 19.0359 15.6835 18.8503 15.6711H18.2563C18.0459 15.6711 17.7242 15.7454 17.4396 16.0548C17.1673 16.3641 16.3753 17.1066 16.3753 18.6164C16.3753 20.1261 17.4767 21.5864 17.6252 21.7844C17.7737 21.9948 19.7908 25.0885 22.8598 26.4126C23.5899 26.7344 24.1592 26.92 24.6047 27.0561C25.3348 27.2913 26.0031 27.2541 26.5352 27.1799C27.1292 27.0933 28.3543 26.4374 28.6018 25.7196C28.8617 25.0019 28.8617 24.3955 28.7751 24.2594C28.6884 24.1233 28.5028 24.0614 28.1934 23.9129Z" fill="#2B1252"/>
</svg>
