<svg width="762" height="196" viewBox="0 0 762 196" fill="none" xmlns="http://www.w3.org/2000/svg">
<path d="M72 82.1286C72 89.2378 66.8921 95 60.594 95H11.406C5.10614 95 0 89.2378 0 82.1286C0 75.9455 3.86184 70.7812 9.01329 69.5423C9.72257 63.2039 14.5168 58.3031 20.327 58.3031C21.9529 58.3031 23.4987 58.6866 24.8981 59.3788C27.554 51.5557 34.2721 46 42.137 46C52.3301 46 60.594 55.3257 60.594 66.8283C60.594 67.6504 60.5521 68.4606 60.4685 69.2591C60.5103 69.2571 60.5521 69.2571 60.594 69.2571C66.8921 69.2571 72 75.0193 72 82.1286Z" fill="white" fill-opacity="0.3"/>
<path d="M287 60.46C287 72.3572 275.649 82 261.653 82H152.347C138.347 82 127 72.3572 127 60.46C127 50.1129 135.582 41.4706 147.03 39.3973C148.606 28.7902 159.259 20.5889 172.171 20.5889C175.784 20.5889 179.219 21.2306 182.329 22.3891C188.231 9.29724 203.16 0 220.638 0C243.289 0 261.653 15.6062 261.653 34.8556C261.653 36.2313 261.56 37.5872 261.374 38.9233C261.467 38.92 261.56 38.92 261.653 38.92C275.649 38.92 287 48.5628 287 60.46Z" fill="white" fill-opacity="0.3"/>
<path d="M205 154.4C205 164.121 197.267 172 187.733 172H113.267C103.73 172 96 164.121 96 154.4C96 145.946 101.846 138.885 109.645 137.19C110.719 128.524 117.977 121.823 126.773 121.823C129.234 121.823 131.574 122.347 133.693 123.294C137.714 112.597 147.884 105 159.791 105C175.222 105 187.733 117.751 187.733 133.48C187.733 134.604 187.669 135.711 187.543 136.803C187.606 136.801 187.669 136.801 187.733 136.801C197.267 136.801 205 144.679 205 154.4Z" fill="white" fill-opacity="0.3"/>
<path d="M400 168.281C400 173.649 395.176 178 389.228 178H342.772C336.822 178 332 173.649 332 168.281C332 163.612 335.647 159.712 340.513 158.777C341.182 153.991 345.71 150.29 351.198 150.29C352.733 150.29 354.193 150.58 355.515 151.102C358.023 145.195 364.368 141 371.796 141C381.423 141 389.228 148.042 389.228 156.728C389.228 157.348 389.188 157.96 389.109 158.563C389.149 158.561 389.188 158.561 389.228 158.561C395.176 158.561 400 162.913 400 168.281Z" fill="white" fill-opacity="0.3"/>
<path d="M762 52.3912C762 59.3554 756.466 65 749.643 65H696.357C689.532 65 684 59.3554 684 52.3912C684 46.3344 688.184 41.2755 693.764 40.0618C694.533 33.8528 699.726 29.052 706.021 29.052C707.782 29.052 709.457 29.4277 710.973 30.1058C713.85 22.4423 721.128 17 729.648 17C740.691 17 749.643 26.1353 749.643 37.4033C749.643 38.2085 749.598 39.0022 749.508 39.7844C749.553 39.7825 749.598 39.7825 749.643 39.7825C756.466 39.7825 762 45.427 762 52.3912Z" fill="white" fill-opacity="0.3"/>
<path d="M752 176.299C752 187.18 741.997 196 729.663 196H633.337C621 196 611 187.18 611 176.299C611 166.835 618.563 158.93 628.651 157.034C630.04 147.332 639.429 139.831 650.807 139.831C653.991 139.831 657.018 140.418 659.759 141.478C664.96 129.504 678.116 121 693.518 121C713.48 121 729.663 135.274 729.663 152.88C729.663 154.138 729.581 155.379 729.417 156.601C729.499 156.598 729.581 156.598 729.663 156.598C741.997 156.598 752 165.417 752 176.299Z" fill="white" fill-opacity="0.3"/>
</svg>
