<svg width="384" height="178" viewBox="0 0 384 178" fill="none" xmlns="http://www.w3.org/2000/svg">
<path opacity="0.57" d="M0.00928497 51.4527C0.312462 53.9191 8.91515 54.8487 19.1853 53.5396C29.4555 52.2306 64.4537 45.7612 64.1316 43.2948C63.8095 40.8285 28.3186 43.3138 18.0484 44.6229C7.77822 45.9319 -0.312843 48.9864 0.00928497 51.4527Z" fill="white"/>
<path opacity="0.57" d="M128.273 35.1369C127.97 32.6706 119.367 31.7409 109.097 33.05C98.8267 34.3591 63.8285 40.8284 64.1506 43.2948C64.4538 45.7611 99.9636 43.2758 110.234 41.9668C120.504 40.6577 128.595 37.6032 128.273 35.1369Z" fill="white"/>
<path d="M63.5618 36.0031L62.8663 36.0915C60.4602 36.3976 58.7536 38.6036 59.0593 41.0126L62.1661 65.4981C62.4718 67.9072 64.6751 69.6158 67.0812 69.3098L67.7767 69.2213C70.1828 68.9153 71.8894 66.7093 71.5837 64.3003L68.4769 39.8147C68.1712 37.4057 65.9679 35.697 63.5618 36.0031Z" fill="#F0ECE7"/>
<path d="M71.3973 54.5525L59.8931 56.0158C57.4682 56.3242 55.7452 58.5514 56.0533 60.9793L59.0622 84.6932C59.3703 87.121 61.5947 88.8461 64.0196 88.5377L75.5238 87.0744C77.9487 86.766 79.6717 84.5388 79.3636 82.111L76.3547 58.3971C76.0466 55.9692 73.8222 54.2441 71.3973 54.5525Z" fill="#25233C"/>
<path d="M46.7749 87.1386C48.3476 99.4702 59.5842 108.178 71.8819 106.623C84.1796 105.067 92.896 93.7977 91.3422 81.485C89.7694 69.1533 78.5329 60.4452 66.2352 62.0009C53.9375 63.5566 45.2211 74.8258 46.7749 87.1386Z" fill="#1AD9FF"/>
<path d="M189.648 47.5065L163.253 48.9104C158.496 49.157 153.949 50.9783 150.102 54.0517C138.657 63.1772 107.259 82.2249 45.6003 81.0297C42.4927 80.9728 40.0104 83.8375 40.1999 87.3093C40.3515 90.2879 42.4358 92.7163 45.1076 93.0009C60.5697 94.6325 111.314 98.1992 146.312 79.474C153.608 75.5848 162.078 75.3761 169.657 78.7151L189.496 87.4232L189.667 47.5444L189.648 47.5065Z" fill="#25233C"/>
<path opacity="0.57" d="M383.587 2.67617C383.91 5.1425 375.818 8.19696 365.548 9.50602C355.278 10.8151 319.768 13.3004 319.465 10.834C319.143 8.36771 354.141 1.89832 364.411 0.589266C374.682 -0.719789 383.284 0.228803 383.587 2.67617Z" fill="white"/>
<path opacity="0.57" d="M255.324 18.9919C255.002 16.5256 263.093 13.4711 273.363 12.1621C283.633 10.853 319.143 8.36769 319.446 10.834C319.749 13.3004 284.77 19.7697 274.5 21.0788C264.23 22.3879 255.627 21.4393 255.324 18.9919Z" fill="white"/>
<path d="M323.102 36.7326L322.407 36.821C319.998 37.1274 317.798 35.4208 317.492 33.0094L314.385 8.52382C314.079 6.11235 315.784 3.90911 318.192 3.60276L318.888 3.51429C321.296 3.20794 323.497 4.91448 323.803 7.32596L326.909 31.8115C327.215 34.223 325.511 36.4262 323.102 36.7326Z" fill="#F0ECE7"/>
<path d="M319.347 56.0633L330.851 54.6001C333.276 54.2916 334.999 52.0644 334.691 49.6366L331.682 25.9227C331.374 23.4948 329.149 21.7697 326.725 22.0781L315.22 23.5414C312.795 23.8498 311.072 26.077 311.381 28.5049L314.389 52.2188C314.697 54.6466 316.922 56.3718 319.347 56.0633Z" fill="#25233C"/>
<path d="M347.206 48.9294C348.779 61.2611 340.063 72.5114 327.746 74.0671C315.429 75.6227 304.193 66.9147 302.639 54.583C301.085 42.2513 309.783 31.001 322.099 29.4453C334.416 27.8707 345.652 36.5977 347.206 48.9294Z" fill="#1AD9FF"/>
<path d="M198.971 46.3302L224.873 41.075C229.535 40.1264 234.405 40.7525 238.895 42.7635C252.254 48.7207 287.404 59.3069 346.827 42.7066C349.821 41.8718 352.948 44.0346 353.63 47.4306C354.217 50.3522 352.815 53.217 350.295 54.1656C335.742 59.6105 287.499 75.7745 248.919 66.4024C240.885 64.4483 232.642 66.4024 226.124 71.5058L209.07 84.8999L198.952 46.3302H198.971Z" fill="#25233C"/>
<path d="M180.591 85.9625L190.975 96.9472C190.975 96.9472 187.905 102.506 178.753 111.726C173.959 110.683 169.165 109.62 164.371 108.539C176.801 97.3266 180.591 85.9625 180.591 85.9625Z" fill="#732FFF"/>
<path d="M164.371 108.539C169.165 109.62 173.959 110.664 178.753 111.726C174.565 115.957 169.089 120.947 162.059 126.543C145.65 139.577 149.799 159.516 153.191 169.211C154.309 172.417 152.604 175.927 149.382 177.008C146.123 178.109 142.618 176.268 141.614 172.967C135.834 154.166 136.137 128.934 157.303 114.155C159.918 112.314 162.268 110.436 164.371 108.539Z" fill="#1AD9FF"/>
<path d="M215.512 81.5231L208.198 94.7465C208.198 94.7465 212.556 99.3566 223.717 105.997C228.094 103.777 232.471 101.557 236.849 99.3187C222.012 91.5782 215.512 81.5042 215.512 81.5042V81.5231Z" fill="#732FFF"/>
<path d="M236.849 99.3187C232.472 101.557 228.095 103.777 223.718 105.997C228.834 109.032 235.371 112.504 243.576 116.166C262.733 124.684 263.68 145.022 262.809 155.267C262.524 158.663 265.045 161.622 268.436 161.869C271.866 162.115 274.803 159.459 274.955 156.025C275.845 136.39 269.251 112.011 245.073 102.999C242.079 101.88 239.331 100.647 236.83 99.3187H236.849Z" fill="#1AD9FF"/>
<path d="M187.393 72.6632L206.91 70.1779C210.548 69.7226 213.864 72.2838 214.319 75.9264L219.056 113.244C220.193 122.275 213.826 130.527 204.807 131.666C195.787 132.804 187.544 126.429 186.408 117.399L181.67 80.0812C181.216 76.4386 183.774 73.1185 187.412 72.6632H187.393Z" fill="#25233C"/>
<path d="M211.625 35.4657L174.162 40.2308C168.015 41.0127 163.65 46.6549 164.431 52.8092L167.581 77.6335C169.522 92.9347 183.505 103.778 198.787 101.834L203.167 101.277C218.45 99.3334 229.28 85.3339 227.338 70.0327L224.189 45.2084C223.408 39.0541 217.772 34.6838 211.625 35.4657Z" fill="#1AD9FF"/>
<path d="M176.327 72.3028C177.767 83.7049 188.17 91.7679 199.539 90.3071C210.927 88.8652 218.981 78.4497 217.522 67.0476C216.082 55.6456 205.679 47.5826 194.31 49.0434C182.921 50.4852 174.868 60.9008 176.327 72.3028Z" fill="#25233C"/>
<path d="M180.61 71.7717C181.747 80.8023 189.989 87.1958 199.009 86.0385C208.029 84.9002 214.414 76.6474 213.258 67.6169C212.121 58.5863 203.879 52.1928 194.859 53.35C185.84 54.4884 179.454 62.7411 180.61 71.7717Z" fill="#732FFF"/>
<path d="M184.419 71.2784C185.29 78.2031 191.619 83.0979 198.535 82.2252C205.452 81.3525 210.34 75.0159 209.469 68.0912C208.597 61.1664 202.268 56.2717 195.352 57.1444C188.436 58.0171 183.547 64.3537 184.419 71.2784Z" fill="#25233C"/>
<path d="M187.678 70.8611C188.322 75.9835 193.003 79.6071 198.119 78.962C203.235 78.317 206.854 73.631 206.21 68.5086C205.566 63.3862 200.885 59.7626 195.769 60.4076C190.653 61.0526 187.034 65.7387 187.678 70.8611Z" fill="#E7E0D8"/>
<path d="M190.406 70.5195C190.861 74.1241 194.158 76.6853 197.777 76.23C201.396 75.7747 203.935 72.4736 203.481 68.85C203.026 65.2453 199.729 62.6841 196.109 63.1395C192.49 63.5948 189.951 66.8959 190.406 70.5195Z" fill="#25233C"/>
<path d="M196.963 65.3212C197.266 67.7306 199.464 69.4381 201.87 69.1345C204.277 68.831 205.982 66.6303 205.679 64.2208C205.376 61.8114 203.178 60.104 200.771 60.4075C198.365 60.7111 196.659 62.9118 196.963 65.3212Z" fill="white"/>
</svg>
