<svg width="66" height="66" viewBox="0 0 66 66" fill="none" xmlns="http://www.w3.org/2000/svg">
<path d="M16.6485 10.263L43.9189 21.9491L33 26.6269L5.88638 15.0067C6.49688 14.3839 7.2435 13.8806 8.09325 13.5547L16.6485 10.263ZM22.1677 8.14275L28.5615 5.68425C31.4199 4.58537 34.5842 4.58537 37.4426 5.68425L57.9109 13.5547C58.7565 13.8847 59.5031 14.3797 60.1136 15.0067L49.1576 19.701L22.1677 8.14275ZM61.8503 18.7522L35.0625 30.2321V60.9634C35.8738 60.8259 36.6671 60.6086 37.4426 60.3116L57.9109 52.437C59.0778 51.9877 60.0812 51.1954 60.7888 50.1645C61.4965 49.1335 61.8752 47.9124 61.875 46.662V19.3297C61.875 19.1372 61.8654 18.9447 61.8461 18.7522M30.9375 60.9634V30.2321L4.15387 18.7522C4.1375 18.9444 4.12787 19.137 4.125 19.3297V46.662C4.12517 47.9129 4.50447 49.1344 5.21289 50.1653C5.92131 51.1963 6.92558 51.9883 8.09325 52.437L28.5574 60.3116C29.3329 60.6086 30.1262 60.8259 30.9375 60.9634Z" fill="url(#paint0_linear_6_79)"/>
<defs>
<linearGradient id="paint0_linear_6_79" x1="4.125" y1="32.9117" x2="61.875" y2="32.9117" gradientUnits="userSpaceOnUse">
<stop stop-color="#03A7C8"/>
<stop offset="0.5" stop-color="#732FFF"/>
<stop offset="1" stop-color="#AC1F51"/>
</linearGradient>
</defs>
</svg>
